<?xml version="1.0" encoding="UTF-8" standalone="no"?>
<svg
   xmlns:dc="http://purl.org/dc/elements/1.1/"
   xmlns:cc="http://creativecommons.org/ns#"
   xmlns:rdf="http://www.w3.org/1999/02/22-rdf-syntax-ns#"
   xmlns:svg="http://www.w3.org/2000/svg"
   xmlns="http://www.w3.org/2000/svg"
   xmlns:xlink="http://www.w3.org/1999/xlink"
   xmlns:sodipodi="http://sodipodi.sourceforge.net/DTD/sodipodi-0.dtd"
   xmlns:inkscape="http://www.inkscape.org/namespaces/inkscape"
   width="836px"
   height="373px"
   viewBox="0 0 836 373"
   version="1.1"
   id="svg206"
   sodipodi:docname="adapter3.svg"
   inkscape:version="0.92.4 (5da689c313, 2019-01-14)">
  <metadata
     id="metadata212">
    <rdf:RDF>
      <cc:Work
         rdf:about="">
        <dc:format>image/svg+xml</dc:format>
        <dc:type
           rdf:resource="http://purl.org/dc/dcmitype/StillImage" />
        <dc:title>adapter</dc:title>
      </cc:Work>
    </rdf:RDF>
  </metadata>
  <defs
     id="defs210" />
  <sodipodi:namedview
     pagecolor="#ffffff"
     bordercolor="#666666"
     borderopacity="1"
     objecttolerance="10"
     gridtolerance="10"
     guidetolerance="10"
     inkscape:pageopacity="0"
     inkscape:pageshadow="2"
     inkscape:window-width="1920"
     inkscape:window-height="1018"
     id="namedview208"
     showgrid="false"
     inkscape:zoom="1.2856487"
     inkscape:cx="351.07051"
     inkscape:cy="145.54927"
     inkscape:window-x="-8"
     inkscape:window-y="-8"
     inkscape:window-maximized="1"
     inkscape:current-layer="adapter" />
  <!-- Generator: Sketch 54.1 (76490) - https://sketchapp.com -->
  <title
     id="title2">adapter</title>
  <desc
     id="desc4">Created with Sketch.</desc>
  <g
     id="adapter"
     stroke="none"
     stroke-width="1"
     fill="none"
     fill-rule="evenodd">
    <rect
       x="0"
       y="0"
       width="836"
       height="373"
       id="rect6"
       fill="#FFFFFF" />
    <g
       id="Group-2"
       transform="translate(0.000000, 103.000000)">
      <path
         d="M5,-5.68434189e-14 L145,-5.68434189e-14 C147.8,-5.68434189e-14 150,3.5 150,7.9 L150,159.2 C150,163.5 147.8,167.1 145,167.1 L5,167.1 C2.2,167.1 0,163.6 0,159.2 L0,7.9 C0,3.5 2.2,-5.68434189e-14 5,-5.68434189e-14 Z"
         id="Path"
         fill="#ECEDF2" />
      <g
         id="Windows"
         transform="translate(24.000000, 98.000000)"
         fill="#4CABE9">
        <g
           id="Path-32"
           transform="translate(42.000000, 3.000000)">
          <path
             d="M2.7,11 L0.1,0.9 L1.5,0.9 L2.7,5.9 C3,7.2 3.3,8.4 3.5,9.4 C3.7,8.5 4,7.2 4.3,5.9 L5.7,0.9 L7.2,0.9 L8.4,5.9 C8.7,7.2 9,8.3 9.2,9.4 C9.4,8.3 9.7,7.2 10,5.9 L11.4,0.9 L12.8,0.9 L9.8,11 L8.4,11 L7.2,5.8 C6.9,4.7 6.7,3.6 6.6,2.5 C6.4,3.6 6.1,4.7 5.8,5.8 L4.1,11 L2.7,11 Z"
             id="path9" />
        </g>
        <g
           id="Shape-9"
           transform="translate(56.000000, 3.000000)"
           fill-rule="nonzero">
          <path
             d="M2.3,1.7 C2.3,2 2.1,2.3 1.8,2.5 C1.5,2.7 1.2,2.7 0.9,2.5 C0.6,2.3 0.4,2 0.4,1.7 C0.4,1.5 0.6,1.2 0.7,1.1 C0.9,0.9 1,0.9 1.3,0.9 C1.5,0.9 1.8,0.9 1.9,1.1 C2.1,1.2 2.3,1.6 2.3,1.7 Z M0.7,11 L0.7,3.8 L2.1,3.8 L2.1,11 L0.7,11 Z"
             id="Shape" />
        </g>
        <g
           id="Path-33"
           transform="translate(60.000000, 6.000000)">
          <path
             d="M0.9,2.8 C0.9,2 0.9,1.4 0.9,0.9 L2.1,0.9 L2.1,2.2 C2.6,1.4 3.5,0.8 4.6,0.8 C5.7,0.8 7.2,1.4 7.2,3.8 L7.2,8 L5.8,8 L5.8,3.9 C5.8,2.8 5.3,1.7 4.1,1.7 C3.3,1.7 2.6,2.3 2.3,3.1 C2.3,3.3 2.1,3.6 2.1,3.7 L2.1,8.1 L0.7,8.1 L0.7,2.8 L0.9,2.8 Z"
             id="path14" />
        </g>
        <g
           id="Shape-10"
           transform="translate(68.000000, 3.000000)"
           fill-rule="nonzero">
          <path
             d="M7.8,0.5 L7.8,9.1 C7.8,9.7 7.8,10.5 7.8,11 L6.6,11 L6.6,9.7 C6,10.6 5.1,11.1 4,11.1 C3.1,11.1 2.2,10.6 1.5,10 C0.9,9.4 0.6,8.4 0.7,7.5 C0.5,6.6 0.9,5.6 1.5,4.8 C2.1,4 3,3.7 4,3.5 C4.9,3.5 5.7,3.8 6.2,4.6 L6.2,0.5 L7.8,0.5 Z M6.4,6.7 C6.4,6.5 6.4,6.4 6.4,6.1 C6.2,5.2 5.3,4.5 4.4,4.5 C3,4.5 2.2,5.8 2.2,7.3 C2.2,8.7 3,10 4.4,10 C5.3,10 6.1,9.4 6.4,8.4 C6.4,8.2 6.4,8.1 6.4,7.8 L6.4,6.7 Z"
             id="path17" />
        </g>
        <g
           id="Shape-11"
           transform="translate(77.000000, 6.000000)"
           fill-rule="nonzero">
          <path
             d="M7.7,4.4 C7.9,5.3 7.4,6.4 6.8,7.1 C6,7.9 5.1,8.2 4,8.2 C3.1,8.2 2,7.9 1.4,7.1 C0.8,6.5 0.3,5.4 0.5,4.4 C0.5,3.5 0.8,2.5 1.4,1.7 C2.2,0.9 3.1,0.6 4.2,0.6 C5.1,0.6 6.2,0.9 6.8,1.7 C7.4,2.5 7.7,3.4 7.7,4.4 Z M1.9,4.4 C1.9,6 2.8,7.2 4.1,7.2 C5.4,7.2 6.4,6.1 6.4,4.4 C6.4,3.1 5.8,1.7 4.2,1.7 C2.6,1.7 1.9,3.1 1.9,4.4 Z"
             id="path20" />
        </g>
        <g
           id="Path-34"
           transform="translate(85.000000, 6.000000)">
          <path
             d="M2.2,0.8 L3.1,4.4 C3.3,5.2 3.6,6 3.7,6.8 C3.9,6 4.2,5.2 4.3,4.4 L5.5,0.8 L6.6,0.8 L7.7,4.4 C8,5.2 8.2,6 8.3,6.8 C8.5,6 8.6,5.4 8.9,4.4 L10,0.8 L11.4,0.8 L9.1,8 L7.9,8 L6.8,4.5 C6.5,3.7 6.3,2.9 6.2,2.1 C6,3 5.7,3.7 5.5,4.5 L4.2,8 L3,8 L0.8,0.8 L2.2,0.8 Z"
             id="path23" />
        </g>
        <g
           id="Path-35"
           transform="translate(97.000000, 6.000000)">
          <path
             d="M1.1,6.7 C1.6,7 2.2,7.2 2.9,7.2 C3.8,7.2 4.3,6.7 4.3,6.1 C4.3,5.5 3.8,5.2 2.9,4.8 C1.5,4.3 0.9,3.7 0.9,2.8 C0.9,2.2 1.2,1.5 1.7,1.2 C2.2,0.7 2.8,0.6 3.4,0.7 C4,0.7 4.6,0.9 5.2,1.2 L4.9,2.1 C4.4,1.8 4,1.6 3.4,1.6 C2.6,1.6 2.2,2.1 2.2,2.5 C2.2,3.1 2.7,3.3 3.6,3.8 C4.8,4.3 5.6,4.9 5.6,6 C5.6,7.1 4.5,8 2.8,8 C2,8 1.4,7.8 0.8,7.5 L1.1,6.7 Z"
             id="path26" />
        </g>
        <g
           id="Path-36"
           transform="translate(41.000000, 19.000000)">
          <path
             d="M1.3,8.8 C2.1,9.3 2.8,9.4 3.6,9.4 C5,9.4 5.8,8.8 5.8,7.7 C5.8,6.8 5.2,6.3 3.8,5.7 C2,5 1,4.3 1,2.8 C1,2 1.5,1.2 2.1,0.8 C2.7,0.3 3.5,0 4.4,0.2 C5.2,0.2 5.9,0.4 6.7,0.7 L6.4,1.8 C5.8,1.5 5.2,1.3 4.4,1.3 C3,1.3 2.4,2.1 2.4,2.9 C2.4,3.8 3,4.3 4.4,4.8 C6.1,5.4 7,6.2 7,7.8 C7,9.4 5.8,10.6 3.5,10.6 C2.6,10.6 1.7,10.4 0.9,10 L1.3,8.8 Z"
             id="path29" />
        </g>
        <g
           id="Shape-12"
           transform="translate(49.000000, 22.000000)"
           fill-rule="nonzero">
          <path
             d="M1.7,4.1 C1.7,4.7 1.9,5.5 2.3,6 C2.8,6.5 3.5,6.8 4.1,6.6 C4.9,6.6 5.5,6.4 6.1,6.3 L6.4,7.2 C5.6,7.5 4.9,7.7 3.9,7.7 C3,7.7 1.9,7.4 1.3,6.8 C0.5,6.2 0.2,5.1 0.4,4.1 C0.2,3.2 0.6,2.2 1.3,1.4 C1.9,0.6 2.8,0.3 3.9,0.1 C4.8,0.1 5.6,0.4 6.2,1.2 C6.8,2 7.1,2.8 7,3.6 C7,3.8 7,4.1 7,4.2 L1.7,4.1 Z M5.7,3.1 C5.7,2.6 5.5,2 5.2,1.7 C4.9,1.2 4.3,1.1 3.8,1.1 C2.7,1.1 1.8,2 1.8,3.1 L5.7,3.1 Z"
             id="path32" />
        </g>
        <g
           id="Path-37"
           transform="translate(58.000000, 22.000000)">
          <path
             d="M0.1,2.5 C0.1,1.7 0.1,0.9 0.1,0.3 L1.3,0.3 L1.3,1.7 C1.6,0.8 2.4,0.1 3.3,0.1 C3.5,0.1 3.6,0.1 3.6,0.1 L3.6,1.4 C3.4,1.4 3.3,1.4 3.1,1.4 C2.2,1.4 1.4,2.2 1.3,3.1 C1.3,3.3 1.3,3.6 1.3,3.7 L1.3,7.5 L0,7.5 L0.1,2.5 Z"
             id="path35" />
        </g>
        <g
           id="Path-38"
           transform="translate(63.000000, 22.000000)">
          <path
             d="M1.4,0.2 L2.8,4.3 C3.1,4.9 3.3,5.6 3.4,6.2 C3.6,5.6 3.7,4.9 4,4.3 L5.4,0.2 L6.8,0.2 L3.9,7.4 L2.7,7.4 L0,0.2 L1.4,0.2 Z"
             id="path38" />
        </g>
        <g
           id="Shape-13"
           transform="translate(70.000000, 22.000000)"
           fill-rule="nonzero">
          <path
             d="M1.9,4.1 C1.9,4.7 2.1,5.5 2.5,6 C3,6.5 3.7,6.8 4.3,6.6 C5.1,6.6 5.7,6.4 6.3,6.3 L6.6,7.2 C5.8,7.5 5.1,7.7 4.1,7.7 C3.2,7.7 2.1,7.4 1.5,6.8 C0.9,6.2 0.6,4.9 0.6,4 C0.4,3.1 0.8,2.1 1.5,1.3 C2.1,0.5 3,0.2 4.1,0 C5,0 5.8,0.3 6.4,1.1 C7,1.7 7.3,2.7 7.2,3.5 C7.2,3.7 7.2,4 7.2,4.1 L1.9,4.1 Z M5.9,3.1 C5.9,2.6 5.7,2 5.4,1.7 C5.1,1.4 4.5,1.1 4,1.1 C2.9,1.1 2,2 2,3.1 L5.9,3.1 Z"
             id="path41" />
        </g>
        <g
           id="Path-39"
           transform="translate(79.000000, 22.000000)">
          <path
             d="M0.5,2.5 C0.5,1.7 0.5,0.9 0.5,0.3 L1.7,0.3 L1.7,1.7 C2,0.8 2.8,0.1 3.7,0.1 C3.9,0.1 4,0.1 4,0.1 L4,1.4 C3.8,1.4 3.7,1.4 3.5,1.4 C2.6,1.4 1.8,2.2 1.7,3.1 C1.7,3.3 1.7,3.6 1.7,3.7 L1.7,7.5 L0.3,7.5 L0.5,2.5 Z"
             id="path44" />
        </g>
        <g
           id="Path-40"
           transform="translate(0.000000, 2.000000)">
          <polygon
             id="polygon47"
             points="13.7 13.6 13.7 0.7 0 2.4 0 13.6" />
        </g>
        <g
           id="Path-41"
           transform="translate(15.000000, 0.000000)">
          <polygon
             id="polygon50"
             points="0.7 15.6 18.8 15.6 18.8 0 0.7 2.4" />
        </g>
        <g
           id="Path-42"
           transform="translate(0.000000, 17.000000)">
          <polygon
             id="polygon53"
             points="13.7 0.4 0 0.4 0 11.1 13.7 13" />
        </g>
        <g
           id="Path-43"
           transform="translate(15.000000, 17.000000)">
          <polygon
             id="polygon56"
             points="0.7 0.4 0.7 13.3 18.8 15.8 18.8 0.4" />
        </g>
      </g>
      <polygon
         id="polygon60"
         fill="#333333"
         fill-rule="nonzero"
         points="37.9 51 37.9 38 40.8 38 40.8 48.6 46 48.6 46 51.1 37.9 51.1" />
      <path
         d="M52,51.2 C51.4,51.2 50.8,51.1 50.2,50.8 C49.6,50.6 49.1,50.2 48.7,49.8 C48.3,49.4 47.9,48.8 47.6,48.2 C47.3,47.6 47.2,46.8 47.2,46 C47.2,45.2 47.3,44.4 47.6,43.8 C47.9,43.2 48.2,42.6 48.7,42.2 C49.1,41.8 49.7,41.4 50.2,41.2 C50.8,41 51.4,40.8 52,40.8 C52.6,40.8 53.2,40.9 53.8,41.2 C54.4,41.4 54.9,41.8 55.3,42.2 C55.7,42.6 56.1,43.2 56.4,43.8 C56.7,44.4 56.8,45.2 56.8,46 C56.8,46.8 56.7,47.6 56.4,48.2 C56.1,48.8 55.8,49.4 55.3,49.8 C54.9,50.2 54.3,50.6 53.8,50.8 C53.2,51.1 52.6,51.2 52,51.2 Z M52,48.9 C52.6,48.9 53.1,48.6 53.4,48.1 C53.7,47.6 53.9,46.9 53.9,46 C53.9,45.1 53.7,44.4 53.4,43.9 C53.1,43.4 52.6,43.1 52,43.1 C51.4,43.1 50.9,43.4 50.6,43.9 C50.3,44.4 50.1,45.1 50.1,46 C50.1,46.9 50.2,47.6 50.6,48.1 C50.9,48.6 51.4,48.9 52,48.9 Z"
         id="path62"
         fill="#333333"
         fill-rule="nonzero" />
      <path
         d="M62.3,55.2 C61.7,55.2 61.2,55.2 60.7,55.1 C60.2,55 59.8,54.9 59.4,54.6 C59,54.3 58.7,54.1 58.5,53.8 C58.3,53.5 58.2,53.1 58.2,52.7 C58.2,51.9 58.7,51.2 59.6,50.7 L59.6,50.6 C59.3,50.4 59.1,50.2 58.9,49.9 C58.7,49.6 58.6,49.3 58.6,48.9 C58.6,48.5 58.7,48.2 58.9,47.9 C59.1,47.6 59.4,47.3 59.7,47.1 L59.7,47 C59.4,46.8 59,46.4 58.8,46 C58.5,45.6 58.4,45 58.4,44.5 C58.4,43.9 58.5,43.4 58.7,42.9 C58.9,42.4 59.2,42.1 59.6,41.8 C60,41.5 60.4,41.3 60.9,41.1 C61.4,41 61.9,40.9 62.4,40.9 C63,40.9 63.5,41 63.9,41.1 L67.5,41.1 L67.5,43.2 L65.9,43.2 C66,43.3 66.1,43.5 66.1,43.8 C66.2,44 66.2,44.3 66.2,44.5 C66.2,45.1 66.1,45.6 65.9,46 C65.7,46.4 65.4,46.8 65.1,47 C64.7,47.3 64.3,47.5 63.9,47.6 C63.5,47.7 62.9,47.8 62.4,47.8 C62,47.8 61.6,47.7 61.2,47.6 C61.1,47.7 61,47.8 60.9,47.9 C60.8,48 60.8,48.1 60.8,48.3 C60.8,48.6 60.9,48.7 61.1,48.9 C61.3,49.1 61.7,49.1 62.3,49.1 L63.9,49.1 C65.1,49.1 66.1,49.3 66.7,49.7 C67.3,50.1 67.7,50.7 67.7,51.6 C67.7,52.1 67.6,52.6 67.3,53 C67,53.4 66.7,53.8 66.2,54.1 C65.7,54.4 65.1,54.7 64.5,54.8 C64,55.1 63.2,55.2 62.3,55.2 Z M62.8,53.4 C63.5,53.4 64,53.3 64.4,53.1 C64.8,52.9 65,52.6 65,52.2 C65,51.9 64.9,51.7 64.6,51.6 C64.3,51.5 64,51.4 63.5,51.4 L62.5,51.4 C62.2,51.4 61.9,51.4 61.7,51.4 C61.5,51.4 61.3,51.4 61.1,51.3 C60.7,51.6 60.6,51.9 60.6,52.3 C60.6,52.7 60.8,53 61.2,53.1 C61.6,53.3 62.1,53.4 62.8,53.4 Z M62.6,46.1 C63,46.1 63.3,46 63.6,45.7 C63.9,45.4 64,45 64,44.5 C64,44 63.9,43.6 63.6,43.3 C63.3,43 63,42.9 62.6,42.9 C62.2,42.9 61.9,43 61.6,43.3 C61.3,43.6 61.2,44 61.2,44.5 C61.2,45.1 61.3,45.5 61.6,45.7 C61.9,45.9 62.2,46.1 62.6,46.1 Z"
         id="path64"
         fill="#333333"
         fill-rule="nonzero" />
      <path
         d="M70.9,39.6 C70.4,39.6 70,39.5 69.7,39.2 C69.4,38.9 69.2,38.5 69.2,38.1 C69.2,37.7 69.4,37.3 69.7,37 C70,36.7 70.4,36.6 70.9,36.6 C71.4,36.6 71.8,36.7 72.1,37 C72.4,37.3 72.6,37.6 72.6,38.1 C72.6,38.6 72.4,38.9 72.1,39.2 C71.9,39.5 71.5,39.6 70.9,39.6 Z M69.5,51 L69.5,41.1 L72.4,41.1 L72.4,51 L69.5,51 Z"
         id="path66"
         fill="#333333"
         fill-rule="nonzero" />
      <path
         d="M75,51 L75,41.1 L77.4,41.1 L77.6,42.4 L77.7,42.4 C78.1,42 78.6,41.6 79.1,41.4 C79.6,41.2 80.2,40.9 80.9,40.9 C82,40.9 82.8,41.3 83.2,42 C83.7,42.7 83.9,43.7 83.9,44.9 L83.9,51.1 L81,51.1 L81,45.3 C81,44.6 80.9,44.1 80.7,43.8 C80.5,43.5 80.2,43.4 79.8,43.4 C79.4,43.4 79.1,43.5 78.8,43.6 C78.5,43.8 78.2,44 77.9,44.3 L77.9,51 L75,51 L75,51 Z"
         id="path68"
         fill="#333333"
         fill-rule="nonzero" />
      <path
         d="M90.7,51.2 C90.1,51.2 89.5,51.1 88.9,50.8 C88.3,50.6 87.8,50.2 87.4,49.8 C87,49.4 86.6,48.8 86.3,48.2 C86,47.6 85.9,46.8 85.9,46 C85.9,45.2 86,44.4 86.3,43.8 C86.6,43.2 86.9,42.6 87.4,42.2 C87.8,41.8 88.4,41.4 88.9,41.2 C89.5,41 90.1,40.8 90.7,40.8 C91.3,40.8 91.9,40.9 92.5,41.2 C93.1,41.4 93.6,41.8 94,42.2 C94.4,42.6 94.8,43.2 95.1,43.8 C95.4,44.4 95.5,45.2 95.5,46 C95.5,46.8 95.4,47.6 95.1,48.2 C94.8,48.8 94.5,49.4 94,49.8 C93.6,50.2 93,50.6 92.5,50.8 C91.9,51.1 91.3,51.2 90.7,51.2 Z M90.7,48.9 C91.3,48.9 91.8,48.6 92.1,48.1 C92.4,47.6 92.6,46.9 92.6,46 C92.6,45.1 92.4,44.4 92.1,43.9 C91.8,43.4 91.3,43.1 90.7,43.1 C90.1,43.1 89.6,43.4 89.3,43.9 C89,44.4 88.8,45.1 88.8,46 C88.8,46.9 88.9,47.6 89.3,48.1 C89.6,48.6 90.1,48.9 90.7,48.9 Z"
         id="path70"
         fill="#333333"
         fill-rule="nonzero" />
      <path
         d="M97.5,51 L97.5,41.1 L99.9,41.1 L100.1,42.4 L100.2,42.4 C100.6,42 101.1,41.6 101.5,41.3 C101.9,41 102.5,40.8 103.2,40.8 C103.9,40.8 104.5,40.9 104.9,41.2 C105.3,41.5 105.7,41.9 105.9,42.4 C106.3,41.9 106.8,41.6 107.3,41.2 C107.8,40.9 108.4,40.7 109,40.7 C110.1,40.7 110.9,41.1 111.4,41.8 C111.9,42.5 112.2,43.5 112.2,44.7 L112.2,50.9 L109.3,50.9 L109.3,45.1 C109.3,44.4 109.2,43.9 109,43.6 C108.8,43.3 108.5,43.2 108.1,43.2 C107.6,43.2 107,43.5 106.4,44.2 L106.4,50.9 L103.5,50.9 L103.5,45.1 C103.5,44.4 103.4,43.9 103.2,43.6 C103,43.3 102.7,43.2 102.3,43.2 C101.8,43.2 101.2,43.5 100.6,44.2 L100.6,50.9 L97.5,50.9 L97.5,51 Z"
         id="path72"
         fill="#333333"
         fill-rule="nonzero" />
      <path
         d="M51.4,76.2 C50.5,76.2 49.7,76 48.9,75.7 C48.1,75.4 47.3,74.9 46.6,74.3 L48.3,72.3 C48.8,72.7 49.3,73 49.9,73.3 C50.5,73.6 51,73.7 51.6,73.7 C52.2,73.7 52.7,73.6 53,73.4 C53.3,73.2 53.5,72.9 53.5,72.5 C53.5,72.3 53.5,72.1 53.4,72 C53.3,71.9 53.2,71.7 53,71.6 C52.8,71.5 52.6,71.4 52.4,71.3 C52.2,71.2 51.9,71.1 51.6,71 L49.9,70.3 C49.6,70.2 49.2,70 48.9,69.8 C48.6,69.6 48.3,69.3 48.1,69 C47.9,68.7 47.7,68.4 47.5,68 C47.4,67.6 47.3,67.2 47.3,66.7 C47.3,66.2 47.4,65.7 47.6,65.2 C47.8,64.7 48.1,64.3 48.6,64 C49,63.6 49.5,63.4 50.1,63.2 C50.7,63 51.3,62.9 52,62.9 C52.8,62.9 53.5,63 54.3,63.3 C55,63.6 55.7,64 56.2,64.6 L54.7,66.5 C54.3,66.2 53.8,65.9 53.4,65.7 C53,65.5 52.5,65.4 52,65.4 C51.5,65.4 51.1,65.5 50.8,65.7 C50.5,65.9 50.4,66.2 50.4,66.6 C50.4,66.8 50.4,67 50.5,67.1 C50.6,67.2 50.7,67.4 50.9,67.5 C51.1,67.6 51.3,67.7 51.5,67.8 C51.7,67.9 52,68 52.3,68.1 L54,68.8 C54.8,69.1 55.4,69.6 55.9,70.1 C56.4,70.7 56.6,71.4 56.6,72.3 C56.6,72.8 56.5,73.4 56.3,73.8 C56.1,74.3 55.8,74.7 55.3,75.1 C54.9,75.5 54.4,75.8 53.7,76 C53,76.2 52.2,76.2 51.4,76.2 Z"
         id="path74"
         fill="#333333"
         fill-rule="nonzero" />
      <path
         d="M62.8,76.2 C62.1,76.2 61.4,76.1 60.8,75.8 C60.2,75.6 59.7,75.2 59.2,74.8 C58.7,74.4 58.4,73.8 58.1,73.2 C57.8,72.6 57.7,71.8 57.7,71 C57.7,70.2 57.8,69.5 58.1,68.8 C58.4,68.2 58.7,67.6 59.1,67.2 C59.5,66.8 60,66.4 60.6,66.2 C61.2,66 61.7,65.8 62.3,65.8 C63,65.8 63.6,65.9 64.1,66.2 C64.6,66.4 65.1,66.8 65.4,67.2 C65.8,67.6 66,68.1 66.2,68.7 C66.4,69.3 66.5,69.9 66.5,70.6 C66.5,70.9 66.5,71.1 66.5,71.4 C66.5,71.6 66.4,71.8 66.4,71.9 L60.5,71.9 C60.6,72.6 60.9,73.1 61.4,73.5 C61.9,73.9 62.4,74 63.1,74 C63.8,74 64.5,73.8 65.2,73.3 L66.2,75.1 C65.7,75.4 65.1,75.7 64.5,75.9 C64,76.1 63.4,76.2 62.8,76.2 Z M60.6,70 L64.2,70 C64.2,69.4 64.1,69 63.8,68.6 C63.5,68.3 63.1,68.1 62.5,68.1 C62,68.1 61.6,68.3 61.3,68.6 C60.9,68.8 60.7,69.3 60.6,70 Z"
         id="path76"
         fill="#333333"
         fill-rule="nonzero" />
      <path
         d="M68.7,76 L68.7,66.1 L71.1,66.1 L71.3,67.8 L71.4,67.8 C71.8,67.1 72.2,66.6 72.7,66.3 C73.2,66 73.7,65.8 74.2,65.8 C74.5,65.8 74.7,65.8 74.9,65.9 C75.1,65.9 75.2,66 75.4,66 L74.9,68.5 C74.7,68.4 74.5,68.4 74.4,68.4 C74.2,68.4 74.1,68.4 73.8,68.4 C73.4,68.4 73,68.5 72.6,68.8 C72.2,69.1 71.9,69.5 71.6,70.2 L71.6,76 L68.7,76 L68.7,76 Z"
         id="path78"
         fill="#333333"
         fill-rule="nonzero" />
      <path
         d="M79,76 L75.7,66.1 L78.7,66.1 L80,70.8 C80.1,71.3 80.3,71.8 80.4,72.3 C80.5,72.8 80.7,73.3 80.8,73.9 L80.9,73.9 C81,73.4 81.1,72.9 81.3,72.3 C81.4,71.8 81.6,71.3 81.7,70.8 L83,66.1 L85.8,66.1 L82.6,76 L79,76 Z"
         id="path80"
         fill="#333333"
         fill-rule="nonzero" />
      <path
         d="M91.5,76.2 C90.8,76.2 90.1,76.1 89.5,75.8 C88.9,75.6 88.4,75.2 87.9,74.8 C87.4,74.4 87.1,73.8 86.8,73.2 C86.5,72.6 86.4,71.8 86.4,71 C86.4,70.2 86.5,69.5 86.8,68.8 C87.1,68.2 87.4,67.6 87.8,67.2 C88.2,66.8 88.7,66.4 89.3,66.2 C89.9,66 90.4,65.8 91,65.8 C91.7,65.8 92.3,65.9 92.8,66.2 C93.3,66.4 93.8,66.8 94.1,67.2 C94.5,67.6 94.7,68.1 94.9,68.7 C95.1,69.3 95.2,69.9 95.2,70.6 C95.2,70.9 95.2,71.1 95.2,71.4 C95.2,71.6 95.1,71.8 95.1,71.9 L89.2,71.9 C89.3,72.6 89.6,73.1 90.1,73.5 C90.6,73.9 91.1,74 91.8,74 C92.5,74 93.2,73.8 93.9,73.3 L94.9,75.1 C94.4,75.4 93.8,75.7 93.2,75.9 C92.7,76.1 92.1,76.2 91.5,76.2 Z M89.3,70 L92.9,70 C92.9,69.4 92.8,69 92.5,68.6 C92.2,68.3 91.8,68.1 91.2,68.1 C90.7,68.1 90.3,68.3 90,68.6 C89.6,68.8 89.4,69.3 89.3,70 Z"
         id="path82"
         fill="#333333"
         fill-rule="nonzero" />
      <path
         d="M97.4,76 L97.4,66.1 L99.8,66.1 L100,67.8 L100.1,67.8 C100.5,67.1 100.9,66.6 101.4,66.3 C101.9,66 102.4,65.8 102.9,65.8 C103.2,65.8 103.4,65.8 103.6,65.9 C103.8,65.9 103.9,66 104.1,66 L103.6,68.5 C103.4,68.4 103.2,68.4 103.1,68.4 C102.9,68.4 102.8,68.4 102.5,68.4 C102.1,68.4 101.7,68.5 101.3,68.8 C100.9,69.1 100.6,69.5 100.3,70.2 L100.3,76 L97.4,76 L97.4,76 Z"
         id="path84"
         fill="#333333"
         fill-rule="nonzero" />
    </g>
    <g
       id="Group-3"
       transform="translate(150.000000, 152.000000)"
       fill="#BAC0CF"
       fill-rule="nonzero">
      <rect
         id="Rectangle"
         x="0"
         y="41"
         width="10"
         height="29" />
      <rect
         id="rect88"
         x="0"
         y="0"
         width="10"
         height="29" />
    </g>
    <g
       id="Group"
       transform="translate(686.000000, 222.000000)"
       fill="#ECEDF2">
      <path
         d="M5,0 L145,0 C147.8,0 150,3.2 150,7.1 L150,143 C150,146.9 147.8,150.1 145,150.1 L5,150.1 C2.2,150.1 0,146.9 0,143 L0,7.1 C0,3.2 2.2,0 5,0 Z"
         id="path91" />
    </g>
    <g
       id="Group-Copy"
       transform="translate(686.000000, 0.000000)"
       fill="#ECEDF2">
      <path
         d="M5,0 L145,0 C147.8,0 150,3.2 150,7.1 L150,143 C150,146.9 147.8,150.1 145,150.1 L5,150.1 C2.2,150.1 0,146.9 0,143 L0,7.1 C0,3.2 2.2,0 5,0 Z"
         id="path94" />
    </g>
    <g
       id="Веб-сервис"
       transform="translate(711.000000, 290.000000)"
       fill="#333333">
      <path
         d="M0,15 L0,2 L4.5,2 C5.2,2 5.8,2.1 6.4,2.2 C7,2.3 7.5,2.5 7.9,2.7 C8.3,2.9 8.7,3.3 8.9,3.7 C9.1,4.1 9.3,4.6 9.3,5.3 C9.3,5.6 9.3,5.9 9.2,6.2 C9.1,6.5 9,6.8 8.9,7 C8.8,7.2 8.6,7.5 8.4,7.7 C8.2,7.9 8,8 7.7,8.1 L7.7,8.2 C8,8.3 8.3,8.4 8.6,8.6 C8.9,8.8 9.1,9 9.3,9.2 C9.5,9.5 9.7,9.8 9.8,10.1 C9.9,10.4 10,10.8 10,11.3 C10,12 9.9,12.5 9.6,13 C9.3,13.5 9,13.9 8.5,14.2 C8,14.5 7.5,14.7 6.9,14.9 C6.3,15.1 5.6,15.1 4.9,15.1 L0,15.1 L0,15 Z M3,7.2 L4.4,7.2 C5.1,7.2 5.6,7.1 6,6.8 C6.3,6.5 6.5,6.1 6.5,5.7 C6.5,5.2 6.3,4.8 6,4.6 C5.7,4.4 5.2,4.3 4.5,4.3 L3,4.3 L3,7.2 Z M3,12.7 L4.7,12.7 C6.3,12.7 7.1,12.1 7.1,10.9 C7.1,10.3 6.9,9.9 6.5,9.7 C6.1,9.5 5.5,9.3 4.7,9.3 L3,9.3 L3,12.7 Z M16.3,15.2 C15.6,15.2 14.9,15.1 14.3,14.9 C13.7,14.7 13.2,14.3 12.7,13.9 C12.2,13.5 11.9,12.9 11.6,12.3 C11.3,11.7 11.2,10.9 11.2,10.1 C11.2,9.3 11.3,8.6 11.6,7.9 C11.9,7.3 12.2,6.7 12.6,6.3 C13,5.9 13.5,5.5 14.1,5.3 C14.7,5.1 15.2,4.9 15.8,4.9 C16.5,4.9 17.1,5 17.7,5.3 C18.2,5.5 18.7,5.9 19,6.3 C19.4,6.7 19.6,7.2 19.8,7.8 C20,8.4 20.1,9 20.1,9.7 C20.1,10 20.1,10.2 20.1,10.5 C20.1,10.7 20,10.9 20,11 L14.1,11 C14.2,11.7 14.5,12.2 15,12.6 C15.5,12.9 16,13.1 16.7,13.1 C17.4,13.1 18.1,12.9 18.8,12.4 L19.8,14.2 C19.3,14.5 18.7,14.8 18.1,15 C17.5,15.1 16.9,15.2 16.3,15.2 Z M14.1,9 L17.7,9 C17.7,8.4 17.6,8 17.3,7.6 C17,7.3 16.6,7.1 16,7.1 C15.5,7.1 15.1,7.3 14.8,7.6 C14.5,7.8 14.2,8.3 14.1,9 Z M26.7,15.2 C25.1,15.2 23.9,14.6 23,13.5 C22.2,12.4 21.7,10.8 21.7,8.7 C21.7,7.2 21.9,6 22.2,5 C22.5,4 22.9,3.3 23.5,2.7 C24.1,2.1 24.7,1.7 25.5,1.4 C26.3,1.1 27.1,0.9 28,0.8 C28.6,0.7 29.1,0.6 29.4,0.6 C29.7,0.5 30.1,0.4 30.4,0.3 L31,3 C30.7,3.2 30.4,3.4 30,3.5 C29.6,3.6 29.2,3.7 28.7,3.8 C28,3.9 27.4,4 26.9,4.1 C26.4,4.2 26,4.3 25.7,4.5 C25.4,4.7 25.2,5 25,5.3 C24.8,5.6 24.7,6.2 24.7,6.8 C25,6.4 25.5,6.1 26,5.9 C26.5,5.7 27,5.6 27.6,5.6 C28.1,5.6 28.6,5.7 29.1,5.9 C29.6,6.1 30,6.4 30.3,6.8 C30.7,7.2 30.9,7.7 31.1,8.2 C31.3,8.8 31.4,9.4 31.4,10.2 C31.4,11 31.3,11.7 31.1,12.3 C30.9,12.9 30.5,13.5 30.1,13.9 C29.7,14.3 29.2,14.7 28.6,14.9 C28,15.1 27.4,15.2 26.7,15.2 Z M26.7,12.9 C27.2,12.9 27.7,12.7 27.9,12.2 C28.1,11.7 28.3,11.1 28.3,10.2 C28.3,9.3 28.1,8.7 27.8,8.3 C27.5,7.9 27.1,7.7 26.6,7.7 C26.3,7.7 25.9,7.8 25.6,8 C25.3,8.2 24.9,8.5 24.6,8.9 L24.6,9.5 C24.6,10.6 24.8,11.5 25.1,12 C25.4,12.5 26,12.9 26.7,12.9 Z M33,11 L33,8.9 L37.9,8.9 L37.9,11 L33,11 Z M44.4,15.2 C43.7,15.2 43.1,15.1 42.5,14.9 C41.9,14.7 41.4,14.3 41,13.9 C40.6,13.5 40.2,12.9 40,12.3 C39.8,11.7 39.6,10.9 39.6,10.1 C39.6,9.3 39.7,8.5 40,7.9 C40.3,7.3 40.7,6.7 41.1,6.3 C41.5,5.9 42.1,5.5 42.8,5.3 C43.4,5.1 44.1,4.9 44.8,4.9 C45.4,4.9 46,5 46.4,5.2 C46.9,5.4 47.3,5.7 47.7,6 L46.3,7.9 C45.8,7.5 45.4,7.3 45,7.3 C44.3,7.3 43.7,7.6 43.3,8.1 C42.9,8.6 42.7,9.3 42.7,10.2 C42.7,11.1 42.9,11.8 43.3,12.3 C43.7,12.8 44.2,13.1 44.9,13.1 C45.2,13.1 45.5,13 45.8,12.9 C46.1,12.8 46.4,12.6 46.6,12.4 L47.8,14.3 C47.3,14.7 46.8,15 46.2,15.2 C45.5,15.2 45,15.2 44.4,15.2 Z M53.9,15.2 C53.2,15.2 52.5,15.1 51.9,14.9 C51.3,14.7 50.8,14.3 50.3,13.9 C49.8,13.5 49.5,12.9 49.2,12.3 C48.9,11.7 48.8,10.9 48.8,10.1 C48.8,9.3 48.9,8.6 49.2,7.9 C49.5,7.3 49.8,6.7 50.2,6.3 C50.6,5.9 51.1,5.5 51.7,5.3 C52.3,5.1 52.8,4.9 53.4,4.9 C54.1,4.9 54.7,5 55.2,5.3 C55.7,5.5 56.2,5.9 56.5,6.3 C56.9,6.7 57.1,7.2 57.3,7.8 C57.5,8.4 57.6,9 57.6,9.7 C57.6,10 57.6,10.2 57.6,10.5 C57.6,10.7 57.5,10.9 57.5,11 L51.6,11 C51.7,11.7 52,12.2 52.5,12.6 C53,12.9 53.5,13.1 54.2,13.1 C54.9,13.1 55.6,12.9 56.3,12.4 L57.3,14.2 C56.8,14.5 56.2,14.8 55.6,15 C55.1,15.1 54.5,15.2 53.9,15.2 Z M51.7,9 L55.3,9 C55.3,8.4 55.2,8 54.9,7.6 C54.6,7.3 54.2,7.1 53.6,7.1 C53.1,7.1 52.7,7.3 52.4,7.6 C52,7.8 51.8,8.3 51.7,9 Z M59.8,18.7 L59.8,5.1 L62.2,5.1 L62.4,6.1 L62.5,6.1 C62.9,5.8 63.3,5.5 63.8,5.2 C64.3,5 64.8,4.8 65.3,4.8 C65.9,4.8 66.4,4.9 66.9,5.2 C67.4,5.4 67.8,5.8 68.1,6.2 C68.4,6.6 68.7,7.2 68.9,7.8 C69.1,8.4 69.2,9.1 69.2,9.9 C69.2,10.8 69.1,11.5 68.9,12.2 C68.7,12.9 68.4,13.4 68,13.9 C67.6,14.4 67.2,14.7 66.7,14.9 C66.2,15.1 65.7,15.3 65.1,15.3 C64.7,15.3 64.3,15.2 63.9,15 C63.5,14.8 63.1,14.6 62.8,14.2 L62.9,15.8 L62.9,18.7 L59.8,18.7 L59.8,18.7 Z M64.3,12.8 C64.8,12.8 65.2,12.6 65.6,12.1 C66,11.6 66.1,10.9 66.1,9.9 C66.1,8.1 65.5,7.2 64.4,7.2 C63.8,7.2 63.3,7.5 62.7,8.1 L62.7,12.2 C63,12.4 63.2,12.6 63.5,12.7 C63.8,12.8 64.1,12.8 64.3,12.8 Z M71.3,15 L71.3,5.1 L75.5,5.1 C76.1,5.1 76.6,5.1 77.1,5.2 C77.6,5.3 78,5.4 78.4,5.6 C78.8,5.8 79,6.1 79.2,6.4 C79.4,6.7 79.5,7.1 79.5,7.6 C79.5,8 79.4,8.4 79.1,8.8 C78.8,9.2 78.4,9.5 77.8,9.6 L77.8,9.7 C78.4,9.8 78.9,10.1 79.3,10.5 C79.7,10.9 79.8,11.4 79.8,12.1 C79.8,12.6 79.7,13 79.5,13.4 C79.3,13.8 79,14.1 78.6,14.3 C78.2,14.5 77.8,14.7 77.3,14.8 C76.8,14.9 76.3,15 75.7,15 L71.3,15 L71.3,15 Z M74.1,9 L75.3,9 C75.8,9 76.1,8.9 76.4,8.8 C76.6,8.6 76.7,8.4 76.7,8.1 C76.7,7.8 76.6,7.6 76.4,7.4 C76.2,7.2 75.8,7.1 75.4,7.1 L74.2,7.1 L74.2,9 L74.1,9 Z M74.1,13.1 L75.5,13.1 C76,13.1 76.4,13 76.6,12.8 C76.8,12.6 76.9,12.3 76.9,12 C76.9,11.7 76.8,11.5 76.6,11.3 C76.4,11.1 76,11 75.5,11 L74.1,11 L74.1,13.1 Z M81.8,15 L81.8,5.1 L84.6,5.1 L84.6,7.9 C84.6,8.4 84.6,9 84.5,9.6 C84.4,10.2 84.4,10.8 84.3,11.4 L84.4,11.4 C84.6,11.1 84.8,10.7 85,10.3 C85.2,9.9 85.4,9.6 85.6,9.3 L88.2,5.1 L90.9,5.1 L90.9,15 L88,15 L88,12.2 C88,11.7 88,11.1 88.1,10.5 C88.2,9.9 88.2,9.3 88.3,8.7 L88.2,8.7 C88,9 87.9,9.4 87.6,9.8 C87.3,10.2 87.2,10.5 87,10.8 L84.4,15 L81.8,15 Z M97.8,15.2 C97.1,15.2 96.5,15.1 95.9,14.9 C95.3,14.7 94.8,14.3 94.3,13.9 C93.8,13.5 93.5,12.9 93.3,12.3 C93.1,11.7 92.9,10.9 92.9,10.1 C92.9,9.3 93,8.5 93.3,7.9 C93.6,7.3 94,6.7 94.4,6.3 C94.8,5.9 95.4,5.5 96.1,5.3 C96.7,5.1 97.4,4.9 98.1,4.9 C98.7,4.9 99.3,5 99.7,5.2 C100.2,5.4 100.6,5.7 101,6 L99.6,7.9 C99.1,7.5 98.7,7.3 98.3,7.3 C97.6,7.3 97,7.6 96.6,8.1 C96.2,8.6 96,9.3 96,10.2 C96,11.1 96.2,11.8 96.6,12.3 C97,12.8 97.5,13.1 98.2,13.1 C98.5,13.1 98.8,13 99.1,12.9 C99.4,12.8 99.7,12.6 99.9,12.4 L101.1,14.3 C100.6,14.7 100.1,15 99.5,15.2 C98.9,15.2 98.3,15.2 97.8,15.2 Z"
         id="path97" />
    </g>
    <g
       id="Веб-сервис-Copy"
       transform="translate(711.000000, 68.000000)"
       fill="#333333">
      <path
         d="M0,15 L0,2 L4.5,2 C5.2,2 5.8,2.1 6.4,2.2 C7,2.3 7.5,2.5 7.9,2.7 C8.3,2.9 8.7,3.3 8.9,3.7 C9.1,4.1 9.3,4.6 9.3,5.3 C9.3,5.6 9.3,5.9 9.2,6.2 C9.1,6.5 9,6.8 8.9,7 C8.8,7.2 8.6,7.5 8.4,7.7 C8.2,7.9 8,8 7.7,8.1 L7.7,8.2 C8,8.3 8.3,8.4 8.6,8.6 C8.9,8.8 9.1,9 9.3,9.2 C9.5,9.5 9.7,9.8 9.8,10.1 C9.9,10.4 10,10.8 10,11.3 C10,12 9.9,12.5 9.6,13 C9.3,13.5 9,13.9 8.5,14.2 C8,14.5 7.5,14.7 6.9,14.9 C6.3,15.1 5.6,15.1 4.9,15.1 L0,15.1 L0,15 Z M3,7.2 L4.4,7.2 C5.1,7.2 5.6,7.1 6,6.8 C6.3,6.5 6.5,6.1 6.5,5.7 C6.5,5.2 6.3,4.8 6,4.6 C5.7,4.4 5.2,4.3 4.5,4.3 L3,4.3 L3,7.2 Z M3,12.7 L4.7,12.7 C6.3,12.7 7.1,12.1 7.1,10.9 C7.1,10.3 6.9,9.9 6.5,9.7 C6.1,9.5 5.5,9.3 4.7,9.3 L3,9.3 L3,12.7 Z M16.3,15.2 C15.6,15.2 14.9,15.1 14.3,14.9 C13.7,14.7 13.2,14.3 12.7,13.9 C12.2,13.5 11.9,12.9 11.6,12.3 C11.3,11.7 11.2,10.9 11.2,10.1 C11.2,9.3 11.3,8.6 11.6,7.9 C11.9,7.3 12.2,6.7 12.6,6.3 C13,5.9 13.5,5.5 14.1,5.3 C14.7,5.1 15.2,4.9 15.8,4.9 C16.5,4.9 17.1,5 17.7,5.3 C18.2,5.5 18.7,5.9 19,6.3 C19.4,6.7 19.6,7.2 19.8,7.8 C20,8.4 20.1,9 20.1,9.7 C20.1,10 20.1,10.2 20.1,10.5 C20.1,10.7 20,10.9 20,11 L14.1,11 C14.2,11.7 14.5,12.2 15,12.6 C15.5,12.9 16,13.1 16.7,13.1 C17.4,13.1 18.1,12.9 18.8,12.4 L19.8,14.2 C19.3,14.5 18.7,14.8 18.1,15 C17.5,15.1 16.9,15.2 16.3,15.2 Z M14.1,9 L17.7,9 C17.7,8.4 17.6,8 17.3,7.6 C17,7.3 16.6,7.1 16,7.1 C15.5,7.1 15.1,7.3 14.8,7.6 C14.5,7.8 14.2,8.3 14.1,9 Z M26.7,15.2 C25.1,15.2 23.9,14.6 23,13.5 C22.2,12.4 21.7,10.8 21.7,8.7 C21.7,7.2 21.9,6 22.2,5 C22.5,4 22.9,3.3 23.5,2.7 C24.1,2.1 24.7,1.7 25.5,1.4 C26.3,1.1 27.1,0.9 28,0.8 C28.6,0.7 29.1,0.6 29.4,0.6 C29.7,0.5 30.1,0.4 30.4,0.3 L31,3 C30.7,3.2 30.4,3.4 30,3.5 C29.6,3.6 29.2,3.7 28.7,3.8 C28,3.9 27.4,4 26.9,4.1 C26.4,4.2 26,4.3 25.7,4.5 C25.4,4.7 25.2,5 25,5.3 C24.8,5.6 24.7,6.2 24.7,6.8 C25,6.4 25.5,6.1 26,5.9 C26.5,5.7 27,5.6 27.6,5.6 C28.1,5.6 28.6,5.7 29.1,5.9 C29.6,6.1 30,6.4 30.3,6.8 C30.7,7.2 30.9,7.7 31.1,8.2 C31.3,8.8 31.4,9.4 31.4,10.2 C31.4,11 31.3,11.7 31.1,12.3 C30.9,12.9 30.5,13.5 30.1,13.9 C29.7,14.3 29.2,14.7 28.6,14.9 C28,15.1 27.4,15.2 26.7,15.2 Z M26.7,12.9 C27.2,12.9 27.7,12.7 27.9,12.2 C28.1,11.7 28.3,11.1 28.3,10.2 C28.3,9.3 28.1,8.7 27.8,8.3 C27.5,7.9 27.1,7.7 26.6,7.7 C26.3,7.7 25.9,7.8 25.6,8 C25.3,8.2 24.9,8.5 24.6,8.9 L24.6,9.5 C24.6,10.6 24.8,11.5 25.1,12 C25.4,12.5 26,12.9 26.7,12.9 Z M33,11 L33,8.9 L37.9,8.9 L37.9,11 L33,11 Z M44.4,15.2 C43.7,15.2 43.1,15.1 42.5,14.9 C41.9,14.7 41.4,14.3 41,13.9 C40.6,13.5 40.2,12.9 40,12.3 C39.8,11.7 39.6,10.9 39.6,10.1 C39.6,9.3 39.7,8.5 40,7.9 C40.3,7.3 40.7,6.7 41.1,6.3 C41.5,5.9 42.1,5.5 42.8,5.3 C43.4,5.1 44.1,4.9 44.8,4.9 C45.4,4.9 46,5 46.4,5.2 C46.9,5.4 47.3,5.7 47.7,6 L46.3,7.9 C45.8,7.5 45.4,7.3 45,7.3 C44.3,7.3 43.7,7.6 43.3,8.1 C42.9,8.6 42.7,9.3 42.7,10.2 C42.7,11.1 42.9,11.8 43.3,12.3 C43.7,12.8 44.2,13.1 44.9,13.1 C45.2,13.1 45.5,13 45.8,12.9 C46.1,12.8 46.4,12.6 46.6,12.4 L47.8,14.3 C47.3,14.7 46.8,15 46.2,15.2 C45.5,15.2 45,15.2 44.4,15.2 Z M53.9,15.2 C53.2,15.2 52.5,15.1 51.9,14.9 C51.3,14.7 50.8,14.3 50.3,13.9 C49.8,13.5 49.5,12.9 49.2,12.3 C48.9,11.7 48.8,10.9 48.8,10.1 C48.8,9.3 48.9,8.6 49.2,7.9 C49.5,7.3 49.8,6.7 50.2,6.3 C50.6,5.9 51.1,5.5 51.7,5.3 C52.3,5.1 52.8,4.9 53.4,4.9 C54.1,4.9 54.7,5 55.2,5.3 C55.7,5.5 56.2,5.9 56.5,6.3 C56.9,6.7 57.1,7.2 57.3,7.8 C57.5,8.4 57.6,9 57.6,9.7 C57.6,10 57.6,10.2 57.6,10.5 C57.6,10.7 57.5,10.9 57.5,11 L51.6,11 C51.7,11.7 52,12.2 52.5,12.6 C53,12.9 53.5,13.1 54.2,13.1 C54.9,13.1 55.6,12.9 56.3,12.4 L57.3,14.2 C56.8,14.5 56.2,14.8 55.6,15 C55.1,15.1 54.5,15.2 53.9,15.2 Z M51.7,9 L55.3,9 C55.3,8.4 55.2,8 54.9,7.6 C54.6,7.3 54.2,7.1 53.6,7.1 C53.1,7.1 52.7,7.3 52.4,7.6 C52,7.8 51.8,8.3 51.7,9 Z M59.8,18.7 L59.8,5.1 L62.2,5.1 L62.4,6.1 L62.5,6.1 C62.9,5.8 63.3,5.5 63.8,5.2 C64.3,5 64.8,4.8 65.3,4.8 C65.9,4.8 66.4,4.9 66.9,5.2 C67.4,5.4 67.8,5.8 68.1,6.2 C68.4,6.6 68.7,7.2 68.9,7.8 C69.1,8.4 69.2,9.1 69.2,9.9 C69.2,10.8 69.1,11.5 68.9,12.2 C68.7,12.9 68.4,13.4 68,13.9 C67.6,14.4 67.2,14.7 66.7,14.9 C66.2,15.1 65.7,15.3 65.1,15.3 C64.7,15.3 64.3,15.2 63.9,15 C63.5,14.8 63.1,14.6 62.8,14.2 L62.9,15.8 L62.9,18.7 L59.8,18.7 L59.8,18.7 Z M64.3,12.8 C64.8,12.8 65.2,12.6 65.6,12.1 C66,11.6 66.1,10.9 66.1,9.9 C66.1,8.1 65.5,7.2 64.4,7.2 C63.8,7.2 63.3,7.5 62.7,8.1 L62.7,12.2 C63,12.4 63.2,12.6 63.5,12.7 C63.8,12.8 64.1,12.8 64.3,12.8 Z M71.3,15 L71.3,5.1 L75.5,5.1 C76.1,5.1 76.6,5.1 77.1,5.2 C77.6,5.3 78,5.4 78.4,5.6 C78.8,5.8 79,6.1 79.2,6.4 C79.4,6.7 79.5,7.1 79.5,7.6 C79.5,8 79.4,8.4 79.1,8.8 C78.8,9.2 78.4,9.5 77.8,9.6 L77.8,9.7 C78.4,9.8 78.9,10.1 79.3,10.5 C79.7,10.9 79.8,11.4 79.8,12.1 C79.8,12.6 79.7,13 79.5,13.4 C79.3,13.8 79,14.1 78.6,14.3 C78.2,14.5 77.8,14.7 77.3,14.8 C76.8,14.9 76.3,15 75.7,15 L71.3,15 L71.3,15 Z M74.1,9 L75.3,9 C75.8,9 76.1,8.9 76.4,8.8 C76.6,8.6 76.7,8.4 76.7,8.1 C76.7,7.8 76.6,7.6 76.4,7.4 C76.2,7.2 75.8,7.1 75.4,7.1 L74.2,7.1 L74.2,9 L74.1,9 Z M74.1,13.1 L75.5,13.1 C76,13.1 76.4,13 76.6,12.8 C76.8,12.6 76.9,12.3 76.9,12 C76.9,11.7 76.8,11.5 76.6,11.3 C76.4,11.1 76,11 75.5,11 L74.1,11 L74.1,13.1 Z M81.8,15 L81.8,5.1 L84.6,5.1 L84.6,7.9 C84.6,8.4 84.6,9 84.5,9.6 C84.4,10.2 84.4,10.8 84.3,11.4 L84.4,11.4 C84.6,11.1 84.8,10.7 85,10.3 C85.2,9.9 85.4,9.6 85.6,9.3 L88.2,5.1 L90.9,5.1 L90.9,15 L88,15 L88,12.2 C88,11.7 88,11.1 88.1,10.5 C88.2,9.9 88.2,9.3 88.3,8.7 L88.2,8.7 C88,9 87.9,9.4 87.6,9.8 C87.3,10.2 87.2,10.5 87,10.8 L84.4,15 L81.8,15 Z M97.8,15.2 C97.1,15.2 96.5,15.1 95.9,14.9 C95.3,14.7 94.8,14.3 94.3,13.9 C93.8,13.5 93.5,12.9 93.3,12.3 C93.1,11.7 92.9,10.9 92.9,10.1 C92.9,9.3 93,8.5 93.3,7.9 C93.6,7.3 94,6.7 94.4,6.3 C94.8,5.9 95.4,5.5 96.1,5.3 C96.7,5.1 97.4,4.9 98.1,4.9 C98.7,4.9 99.3,5 99.7,5.2 C100.2,5.4 100.6,5.7 101,6 L99.6,7.9 C99.1,7.5 98.7,7.3 98.3,7.3 C97.6,7.3 97,7.6 96.6,8.1 C96.2,8.6 96,9.3 96,10.2 C96,11.1 96.2,11.8 96.6,12.3 C97,12.8 97.5,13.1 98.2,13.1 C98.5,13.1 98.8,13 99.1,12.9 C99.4,12.8 99.7,12.6 99.9,12.4 L101.1,14.3 C100.6,14.7 100.1,15 99.5,15.2 C98.9,15.2 98.3,15.2 97.8,15.2 Z"
         id="path100" />
    </g>
    <rect
       id="rect103"
       fill="#BAC0CF"
       fill-rule="nonzero"
       x="676"
       y="286"
       width="10"
       height="29" />
    <rect
       id="rect105"
       fill="#BAC0CF"
       fill-rule="nonzero"
       x="676"
       y="61"
       width="10"
       height="29" />
    <g
       id="g109"
       transform="translate(341.000000, 0.000000)"
       fill="#ECEDF2">
      <path
         d="M5,0 L145,0 C147.8,0 150,3.2 150,7.1 L150,143 C150,146.9 147.8,150.1 145,150.1 L5,150.1 C2.2,150.1 0,146.9 0,143 L0,7.1 C0,3.2 2.2,0 5,0 Z"
         id="path107" />
    </g>
    <g
       id="Loginom-Adapter"
       transform="translate(378.000000, 13.000000)"
       fill="#333333">
      <path
         d="M0.9,15 L0.9,2 L3.8,2 L3.8,12.6 L9,12.6 L9,15 L0.9,15 Z M15.2,15.2 C14.6,15.2 14,15.1 13.4,14.8 C12.8,14.6 12.3,14.2 11.9,13.8 C11.5,13.4 11.1,12.8 10.8,12.2 C10.5,11.6 10.4,10.8 10.4,10 C10.4,9.2 10.5,8.4 10.8,7.8 C11.1,7.2 11.4,6.6 11.9,6.2 C12.3,5.8 12.9,5.4 13.4,5.2 C14,5 14.6,4.8 15.2,4.8 C15.8,4.8 16.4,4.9 17,5.2 C17.6,5.4 18.1,5.8 18.5,6.2 C18.9,6.6 19.3,7.2 19.6,7.8 C19.9,8.4 20,9.2 20,10 C20,10.8 19.9,11.6 19.6,12.2 C19.3,12.8 19,13.4 18.5,13.8 C18.1,14.2 17.5,14.6 17,14.8 C16.5,15.1 15.9,15.2 15.2,15.2 Z M15.2,12.9 C15.8,12.9 16.3,12.6 16.6,12.1 C16.9,11.6 17.1,10.9 17.1,10 C17.1,9.1 16.9,8.4 16.6,7.9 C16.3,7.4 15.8,7.1 15.2,7.1 C14.6,7.1 14.1,7.4 13.8,7.9 C13.5,8.4 13.3,9.1 13.3,10 C13.3,10.9 13.4,11.6 13.8,12.1 C14.2,12.6 14.6,12.9 15.2,12.9 Z M25.6,19.2 C25,19.2 24.5,19.2 24,19 C23.5,18.9 23.1,18.8 22.7,18.6 C22.3,18.4 22,18.1 21.8,17.8 C21.6,17.5 21.5,17.1 21.5,16.7 C21.5,15.9 22,15.2 22.9,14.7 L22.9,14.6 C22.6,14.4 22.4,14.2 22.2,13.9 C22,13.6 21.9,13.3 21.9,12.9 C21.9,12.5 22,12.2 22.2,11.9 C22.4,11.6 22.7,11.3 23,11.1 L23,11 C22.7,10.8 22.3,10.4 22.1,10 C21.8,9.6 21.7,9 21.7,8.5 C21.7,7.9 21.8,7.4 22,6.9 C22.2,6.5 22.5,6.1 22.9,5.8 C23.3,5.5 23.7,5.3 24.2,5.1 C24.7,5 25.2,4.9 25.7,4.9 C26.3,4.9 26.8,5 27.2,5.1 L31,5.1 L31,7.2 L29.4,7.2 C29.5,7.3 29.6,7.5 29.6,7.8 C29.7,8 29.7,8.3 29.7,8.5 C29.7,9.1 29.6,9.6 29.4,10 C29.2,10.4 28.9,10.8 28.6,11 C28.2,11.3 27.8,11.5 27.4,11.6 C27,11.7 26.4,11.8 25.9,11.8 C25.5,11.8 25.1,11.7 24.7,11.6 C24.6,11.7 24.5,11.8 24.4,11.9 C24.3,12 24.3,12.1 24.3,12.3 C24.3,12.6 24.4,12.7 24.6,12.9 C24.8,13 25.2,13.1 25.8,13.1 L27.4,13.1 C28.6,13.1 29.6,13.3 30.2,13.7 C30.8,14.1 31.2,14.7 31.2,15.6 C31.2,16.1 31.1,16.6 30.8,17 C30.5,17.4 30.2,17.8 29.7,18.1 C29.2,18.4 28.6,18.7 28,18.8 C27.2,19.1 26.5,19.2 25.6,19.2 Z M25.8,10.1 C26.2,10.1 26.5,10 26.8,9.7 C27.1,9.4 27.2,9 27.2,8.5 C27.2,8 27.1,7.6 26.8,7.3 C26.5,7 26.2,6.9 25.8,6.9 C25.4,6.9 25.1,7 24.8,7.3 C24.5,7.6 24.4,8 24.4,8.5 C24.4,9.1 24.5,9.5 24.8,9.7 C25.1,9.9 25.5,10.1 25.8,10.1 Z M26.1,17.4 C26.8,17.4 27.3,17.3 27.7,17.1 C28.1,16.9 28.3,16.6 28.3,16.2 C28.3,15.9 28.2,15.7 27.9,15.6 C27.6,15.5 27.3,15.4 26.8,15.4 L25.8,15.4 C25.5,15.4 25.2,15.4 25,15.4 C24.8,15.4 24.6,15.4 24.4,15.3 C24,15.6 23.9,15.9 23.9,16.3 C23.9,16.7 24.1,17 24.5,17.2 C24.9,17.4 25.4,17.4 26.1,17.4 Z M32.8,15 L32.8,5.1 L35.7,5.1 L35.7,15 L32.8,15 Z M34.2,3.6 C33.7,3.6 33.3,3.5 33,3.2 C32.7,2.9 32.5,2.5 32.5,2.1 C32.5,1.7 32.7,1.3 33,1 C33.3,0.7 33.7,0.6 34.2,0.6 C34.7,0.6 35.1,0.7 35.4,1 C35.7,1.3 35.9,1.6 35.9,2.1 C35.9,2.6 35.7,2.9 35.4,3.2 C35.1,3.5 34.7,3.6 34.2,3.6 Z M38.3,15 L38.3,5.1 L40.7,5.1 L40.9,6.4 L41,6.4 C41.4,6 41.9,5.7 42.4,5.4 C42.9,5.1 43.5,4.9 44.2,4.9 C45.3,4.9 46.1,5.3 46.5,6 C46.9,6.7 47.2,7.7 47.2,8.9 L47.2,15 L44.3,15 L44.3,9.2 C44.3,8.5 44.2,8 44,7.7 C43.8,7.4 43.5,7.3 43.1,7.3 C42.7,7.3 42.4,7.4 42.1,7.5 C41.8,7.6 41.5,7.9 41.2,8.2 L41.2,15 L38.3,15 Z M54,15.2 C53.4,15.2 52.8,15.1 52.2,14.8 C51.6,14.6 51.1,14.2 50.7,13.8 C50.3,13.4 49.9,12.8 49.6,12.2 C49.3,11.6 49.2,10.8 49.2,10 C49.2,9.2 49.3,8.4 49.6,7.8 C49.9,7.2 50.2,6.6 50.7,6.2 C51.1,5.8 51.7,5.4 52.2,5.2 C52.8,5 53.4,4.8 54,4.8 C54.6,4.8 55.2,4.9 55.8,5.2 C56.4,5.4 56.9,5.8 57.3,6.2 C57.7,6.6 58.1,7.2 58.4,7.8 C58.7,8.4 58.8,9.2 58.8,10 C58.8,10.8 58.7,11.6 58.4,12.2 C58.1,12.8 57.8,13.4 57.3,13.8 C56.9,14.2 56.3,14.6 55.8,14.8 C55.2,15.1 54.6,15.2 54,15.2 Z M54,12.9 C54.6,12.9 55.1,12.6 55.4,12.1 C55.7,11.6 55.9,10.9 55.9,10 C55.9,9.1 55.7,8.4 55.4,7.9 C55.1,7.4 54.6,7.1 54,7.1 C53.4,7.1 52.9,7.4 52.6,7.9 C52.3,8.4 52.1,9.1 52.1,10 C52.1,10.9 52.3,11.6 52.6,12.1 C52.9,12.6 53.4,12.9 54,12.9 Z M60.8,15 L60.8,5.1 L63.2,5.1 L63.4,6.4 L63.5,6.4 C63.9,6 64.4,5.6 64.8,5.3 C65.3,5 65.8,4.8 66.5,4.8 C67.2,4.8 67.8,4.9 68.2,5.2 C68.6,5.5 69,5.9 69.2,6.4 C69.6,5.9 70.1,5.6 70.6,5.2 C71.1,4.8 71.7,4.7 72.3,4.7 C73.4,4.7 74.1,5.1 74.6,5.8 C75.1,6.5 75.4,7.5 75.4,8.7 L75.4,15 L72.5,15 L72.5,9.2 C72.5,8.5 72.4,8 72.2,7.7 C72,7.4 71.7,7.3 71.3,7.3 C70.8,7.3 70.2,7.6 69.6,8.3 L69.6,15 L66.7,15 L66.7,9.2 C66.7,8.5 66.6,8 66.4,7.7 C66.2,7.4 65.9,7.3 65.5,7.3 C65,7.3 64.4,7.6 63.8,8.3 L63.8,15 L60.8,15 Z M7.2,33.4 L6.9,34.6 L9.7,34.6 L9.4,33.4 C9.2,32.7 9,32.1 8.9,31.3 C8.7,30.6 8.6,29.9 8.4,29.2 L8.3,29.2 C8.1,29.9 8,30.6 7.8,31.3 C7.5,32.1 7.3,32.7 7.2,33.4 Z M2.4,40 L6.5,27 L10,27 L14.1,40 L11,40 L10.2,36.9 L6.2,36.9 L5.4,40 L2.4,40 Z M18.8,40.2 C18.2,40.2 17.6,40.1 17.1,39.8 C16.6,39.6 16.2,39.2 15.8,38.8 C15.4,38.4 15.2,37.8 15,37.2 C14.8,36.6 14.7,35.8 14.7,35 C14.7,34.2 14.8,33.5 15,32.8 C15.2,32.1 15.5,31.6 15.9,31.2 C16.3,30.8 16.7,30.4 17.2,30.2 C17.7,30 18.2,29.8 18.7,29.8 C19.3,29.8 19.7,29.9 20.1,30.1 C20.5,30.3 20.8,30.5 21.2,30.9 L21.1,29.4 L21.1,26 L24,26 L24,40 L21.6,40 L21.4,39 L21.3,39 C21,39.3 20.5,39.6 20.1,39.9 C19.8,40.1 19.3,40.2 18.8,40.2 Z M19.6,37.8 C19.9,37.8 20.2,37.7 20.5,37.6 C20.8,37.5 21,37.2 21.3,36.9 L21.3,32.8 C21,32.6 20.8,32.4 20.5,32.3 C20.2,32.2 19.9,32.2 19.7,32.2 C19.2,32.2 18.8,32.4 18.5,32.9 C18.2,33.4 18,34 18,35 C18,36 18.2,36.7 18.5,37.2 C18.6,37.6 19,37.8 19.6,37.8 Z M29.3,40.2 C28.8,40.2 28.4,40.1 28.1,40 C27.7,39.8 27.4,39.6 27.2,39.4 C27,39.2 26.8,38.8 26.6,38.4 C26.5,38 26.4,37.6 26.4,37.2 C26.4,36.2 26.8,35.3 27.7,34.8 C28.6,34.3 30,33.8 32,33.6 C32,33.2 31.8,32.8 31.6,32.6 C31.4,32.4 31,32.2 30.4,32.2 C30,32.2 29.6,32.3 29.1,32.4 C28.7,32.6 28.2,32.8 27.8,33.1 L26.7,31.2 C27.3,30.8 28,30.5 28.7,30.3 C29.4,30.1 30.1,29.9 30.9,29.9 C32.2,29.9 33.2,30.3 33.8,31 C34.4,31.7 34.8,32.9 34.8,34.4 L34.8,40 L32.4,40 L32.2,39 L32.1,39 C31.7,39.4 31.2,39.7 30.8,39.9 C30.3,40.1 29.8,40.2 29.3,40.2 Z M30.3,38 C30.6,38 30.9,37.9 31.2,37.8 C31.4,37.7 31.7,37.4 32,37.2 L32,35.5 C31,35.6 30.2,35.9 29.8,36.1 C29.4,36.4 29.2,36.7 29.2,37.1 C29.2,37.4 29.3,37.7 29.5,37.8 C29.6,37.9 29.9,38 30.3,38 Z M37.3,43.7 L37.3,30.1 L39.7,30.1 L39.9,31.1 L40,31.1 C40.4,30.8 40.8,30.5 41.3,30.2 C41.8,30 42.3,29.9 42.8,29.9 C43.4,29.9 43.9,30 44.4,30.3 C44.9,30.6 45.3,30.9 45.6,31.3 C45.9,31.7 46.2,32.3 46.4,32.9 C46.6,33.5 46.7,34.2 46.7,35 C46.7,35.9 46.6,36.6 46.3,37.3 C46.1,38 45.8,38.5 45.4,39 C45,39.5 44.6,39.8 44.1,40 C43.6,40.2 43.1,40.4 42.6,40.4 C42.2,40.4 41.8,40.3 41.4,40.1 C41,39.9 40.6,39.7 40.3,39.3 L40.4,40.9 L40.4,43.8 L37.3,43.8 L37.3,43.7 Z M41.8,37.8 C42.3,37.8 42.7,37.6 43.1,37.1 C43.5,36.6 43.6,35.9 43.6,34.9 C43.6,33.1 43,32.2 41.9,32.2 C41.3,32.2 40.8,32.5 40.2,33.1 L40.2,37.2 C40.5,37.4 40.7,37.6 41,37.7 C41.3,37.8 41.6,37.8 41.8,37.8 Z M52.6,40.2 C52,40.2 51.5,40.1 51,39.9 C50.6,39.7 50.2,39.5 49.9,39.1 C49.6,38.8 49.4,38.4 49.3,37.9 C49.2,37.4 49.1,36.9 49.1,36.3 L49.1,32.3 L47.7,32.3 L47.7,30.1 L49.2,30 L49.5,27.4 L51.9,27.4 L51.9,30 L54.3,30 L54.3,32.3 L51.9,32.3 L51.9,36.3 C51.9,36.9 52,37.3 52.2,37.5 C52.4,37.7 52.7,37.9 53.1,37.9 C53.3,37.9 53.4,37.9 53.6,37.8 C53.8,37.8 53.9,37.7 54.1,37.7 L54.6,39.8 C54.3,39.9 54,40 53.7,40 C53.5,40.2 53.1,40.2 52.6,40.2 Z M60.9,40.2 C60.2,40.2 59.5,40.1 58.9,39.8 C58.3,39.5 57.8,39.2 57.3,38.8 C56.8,38.4 56.5,37.8 56.2,37.2 C55.9,36.6 55.8,35.8 55.8,35 C55.8,34.2 55.9,33.5 56.2,32.8 C56.5,32.2 56.8,31.6 57.3,31.2 C57.7,30.8 58.2,30.4 58.8,30.2 C59.4,30 59.9,29.8 60.5,29.8 C61.2,29.8 61.8,29.9 62.3,30.2 C62.8,30.4 63.3,30.8 63.6,31.2 C64,31.6 64.2,32.1 64.4,32.7 C64.6,33.3 64.7,33.9 64.7,34.6 C64.7,34.9 64.7,35.1 64.7,35.4 C64.7,35.7 64.6,35.8 64.6,35.9 L58.7,35.9 C58.8,36.6 59.1,37.1 59.6,37.5 C60.1,37.8 60.6,38 61.3,38 C62,38 62.7,37.8 63.4,37.3 L64.4,39.1 C63.9,39.4 63.3,39.7 62.7,39.9 C62.1,40.1 61.5,40.2 60.9,40.2 Z M58.7,34 L62.3,34 C62.3,33.4 62.2,33 61.9,32.6 C61.6,32.2 61.2,32.1 60.6,32.1 C60.1,32.1 59.7,32.3 59.4,32.6 C59.1,32.9 58.8,33.3 58.7,34 Z M66.8,40 L66.8,30.1 L69.2,30.1 L69.4,31.8 L69.5,31.8 C69.9,31.1 70.3,30.6 70.8,30.3 C71.3,30 71.8,29.8 72.3,29.8 C72.6,29.8 72.8,29.8 73,29.8 C73.2,29.8 73.3,29.9 73.5,30 L73,32.5 C72.8,32.4 72.6,32.4 72.5,32.4 C72.3,32.4 72.2,32.4 71.9,32.4 C71.5,32.4 71.1,32.5 70.7,32.8 C70.3,33.1 70,33.5 69.7,34.2 L69.7,40 L66.8,40 Z"
         id="path111" />
    </g>
    <g
       id="g116"
       transform="translate(331.000000, 60.000000)"
       fill="#BAC0CF"
       fill-rule="nonzero">
      <rect
         id="rect114"
         x="0"
         y="0"
         width="10"
         height="30" />
    </g>
    <g
       id="g120"
       transform="translate(491.000000, 60.000000)"
       fill="#BAC0CF"
       fill-rule="nonzero">
      <rect
         id="rect118"
         x="0"
         y="0"
         width="10"
         height="30" />
    </g>
    <g
       id="MS_IIS-link-Copy"
       transform="translate(362.000000, 99.000000)">
      <g
         id="MS_IIS">
        <g
           id="g124"
           transform="translate(36.000000, 0.000000)"
           fill="#000000"
           fill-rule="nonzero">
          <path
             d="M12,8.5 C11.9,6.6 11.8,4.3 11.8,2.7 L11.7,2.7 C11.2,4.3 10.7,6 10,7.8 L7.6,14.4 L6.3,14.4 L4.1,8 C3.5,6 3,4.3 2.6,2.7 L2.6,2.7 C2.6,4.4 2.5,6.6 2.3,8.7 L1.9,14.5 L0.3,14.5 L1.2,0.9 L3.4,0.9 L5.7,7.5 C6.3,9.1 6.7,10.7 7.1,12.1 L7.2,12.1 C7.6,10.7 8,9.2 8.6,7.5 L11,0.9 L13.2,0.9 L14,14.5 L12.3,14.5 L12,8.5 Z"
             id="path122" />
        </g>
        <g
           id="g128"
           transform="translate(51.000000, 0.000000)"
           fill="#000000"
           fill-rule="nonzero">
          <path
             d="M3.1,2 C3.1,2.6 2.6,3.1 2,3.1 C1.4,3.1 0.9,2.6 0.9,2 C0.9,1.7 1,1.4 1.2,1.2 C1.4,1 1.7,0.9 2,0.9 C2.3,0.9 2.6,1 2.8,1.2 C3,1.4 3.1,1.7 3.1,2 Z M1.2,14.5 L1.2,4.8 L3,4.8 L3,14.5 L1.2,14.5 Z"
             id="path126" />
        </g>
        <g
           id="Path-2"
           transform="translate(55.000000, 4.000000)"
           fill="#000000"
           fill-rule="nonzero">
          <path
             d="M8,10.1 C7.1,10.5 6.2,10.7 5.2,10.7 C3.9,10.8 2.6,10.3 1.7,9.3 C0.8,8.4 0.3,7 0.4,5.7 C0.3,4.3 0.8,3 1.8,2 C2.8,1 4.2,0.5 5.6,0.6 C6.4,0.6 7.3,0.8 8,1.1 L7.6,2.5 C7,2.1 6.3,1.9 5.6,2 C4.6,2 3.7,2.4 3.1,3.1 C2.5,3.8 2.1,4.8 2.2,5.7 C2.1,6.6 2.4,7.6 3.1,8.3 C3.8,9 4.7,9.4 5.6,9.4 C6.3,9.4 7.1,9.2 7.8,8.9 L8,10.1 Z"
             id="path130" />
        </g>
        <g
           id="Path-3"
           transform="translate(64.000000, 4.000000)"
           fill="#000000"
           fill-rule="nonzero">
          <path
             d="M0.3,3.8 C0.3,2.7 0.3,1.7 0.2,0.8 L1.7,0.8 L1.8,2.7 L1.9,2.7 C2.3,1.5 3.3,0.6 4.6,0.6 C4.8,0.6 4.9,0.6 5.1,0.6 L5.1,2.3 C4.9,2.3 4.7,2.2 4.5,2.3 C3.3,2.4 2.3,3.3 2.2,4.6 C2.2,4.9 2.1,5.1 2.1,5.4 L2.1,10.6 L0.3,10.6 L0.3,3.8 L0.3,3.8 Z"
             id="path133" />
        </g>
        <g
           id="Shape-2"
           transform="translate(69.000000, 4.000000)"
           fill="#000000"
           fill-rule="nonzero">
          <path
             d="M9.6,5.5 C9.7,6.8 9.3,8.2 8.3,9.2 C7.4,10.2 6.1,10.7 4.7,10.7 C3.4,10.7 2.2,10.2 1.3,9.2 C0.4,8.2 0,7 0.1,5.7 C0,4.4 0.4,3 1.4,2 C2.3,1 3.6,0.5 5,0.5 C6.3,0.5 7.5,1 8.4,2 C9.3,3 9.8,4.2 9.6,5.5 Z M2,5.7 C2,7.8 3.2,9.4 4.9,9.4 C6.6,9.4 7.9,7.8 7.9,5.6 C7.9,3.9 7.1,1.9 5,1.9 C2.9,1.9 2,3.8 2,5.7 L2,5.7 Z"
             id="path136" />
        </g>
        <g
           id="Path-4"
           transform="translate(79.000000, 4.000000)"
           fill="#000000"
           fill-rule="nonzero">
          <path
             d="M0.9,8.7 C1.6,9.1 2.4,9.4 3.2,9.4 C4.5,9.4 5.1,8.8 5.1,8 C5.1,7.2 4.6,6.7 3.3,6.2 C1.6,5.6 0.7,4.6 0.7,3.4 C0.7,2.6 1.1,1.8 1.8,1.2 C2.4,0.7 3.3,0.4 4.1,0.5 C4.9,0.5 5.7,0.7 6.5,1.1 L6,2.4 C5.4,2 4.7,1.8 4,1.8 C3,1.8 2.4,2.4 2.4,3.1 C2.4,3.9 3,4.3 4.2,4.8 C5.9,5.4 6.7,6.3 6.7,7.7 C6.7,9.4 5.4,10.6 3.1,10.6 C2.2,10.6 1.2,10.4 0.4,9.9 L0.9,8.7 Z"
             id="path139" />
        </g>
        <g
           id="Shape-3"
           transform="translate(86.000000, 4.000000)"
           fill="#000000"
           fill-rule="nonzero">
          <path
             d="M10.1,5.5 C10.2,6.8 9.8,8.2 8.8,9.2 C7.9,10.2 6.6,10.7 5.2,10.7 C3.9,10.7 2.7,10.2 1.8,9.2 C0.9,8.2 0.5,7 0.6,5.7 C0.5,4.4 0.9,3 1.9,2 C2.8,1 4.1,0.5 5.5,0.5 C6.8,0.5 8,1 8.9,1.9 C9.7,3 10.2,4.2 10.1,5.5 Z M2.4,5.7 C2.4,7.8 3.6,9.4 5.3,9.4 C7,9.4 8.3,7.8 8.3,5.6 C8.3,3.9 7.5,1.9 5.4,1.9 C3.3,1.9 2.4,3.8 2.4,5.7 L2.4,5.7 Z"
             id="path142" />
        </g>
        <g
           id="Path-5"
           transform="translate(96.000000, 0.000000)"
           fill="#000000"
           fill-rule="nonzero">
          <path
             d="M1.7,14.5 L1.7,6.1 L0.3,6.1 L0.3,4.8 L1.7,4.8 L1.7,4.3 C1.6,3.1 2,1.8 2.8,0.9 C3.4,0.3 4.3,-1.11022302e-16 5.1,-1.11022302e-16 C5.6,-1.11022302e-16 6.1,0.1 6.6,0.3 L6.4,1.7 C6,1.5 5.7,1.5 5.3,1.5 C3.8,1.5 3.4,2.8 3.4,4.3 L3.4,4.8 L5.7,4.8 L5.7,6.1 L3.4,6.1 L3.4,14.5 L1.7,14.5 Z"
             id="path145" />
        </g>
        <g
           id="Path-6"
           transform="translate(101.000000, 2.000000)"
           fill="#000000"
           fill-rule="nonzero">
          <path
             d="M3.9,0 L3.9,2.8 L6.4,2.8 L6.4,4.1 L3.9,4.1 L3.9,9.3 C3.9,10.5 4.2,11.2 5.2,11.2 C5.5,11.2 5.9,11.2 6.2,11.1 L6.3,12.4 C5.8,12.6 5.3,12.7 4.7,12.6 C4,12.6 3.3,12.4 2.8,11.9 C2.3,11.2 2,10.3 2.1,9.4 L2.1,4.1 L0.6,4.1 L0.6,2.8 L2.1,2.8 L2.1,0.4 L3.9,0 Z"
             id="path148" />
        </g>
        <g
           id="Path-7"
           transform="translate(36.000000, 16.000000)"
           fill="#000000"
           fill-rule="nonzero">
          <polygon
             id="polygon151"
             points="2.4 0.4 2.4 13.9 0.6 13.9 0.6 0.4" />
        </g>
        <polygon
           id="polygon154"
           fill="#000000"
           fill-rule="nonzero"
           points="42.4 16.4 42.4 29.9 40.7 29.9 40.7 16.4" />
        <path
           d="M44.5,27.8 C45.4,28.4 46.5,28.7 47.6,28.7 C49.4,28.7 50.4,27.8 50.4,26.4 C50.4,25.1 49.7,24.4 47.8,23.7 C45.6,22.9 44.2,21.8 44.2,19.9 C44.3,18.8 44.8,17.8 45.6,17.1 C46.4,16.4 47.5,16.1 48.6,16.2 C49.6,16.2 50.7,16.4 51.6,16.9 L51.1,18.3 C50.3,17.9 49.4,17.6 48.5,17.7 C46.6,17.7 45.9,18.8 45.9,19.7 C45.9,21 46.7,21.6 48.6,22.3 C50.9,23.2 52,24.3 52,26.3 C52,28.4 50.5,30.2 47.3,30.2 C46.1,30.2 44.9,29.9 43.9,29.3 L44.5,27.8 Z"
           id="path156"
           fill="#000000"
           fill-rule="nonzero" />
        <g
           id="Rectangle-3"
           transform="translate(16.000000, 0.000000)"
           fill="#9BC13C">
          <rect
             id="rect158"
             x="0"
             y="0.5"
             width="14.3"
             height="14.1" />
        </g>
        <g
           id="Rectangle-4"
           fill="#E7703F">
          <rect
             id="rect161"
             x="0"
             y="0.5"
             width="14.3"
             height="14.1" />
        </g>
        <g
           id="Rectangle-5"
           transform="translate(0.000000, 16.000000)"
           fill="#4FB2EC">
          <rect
             id="rect164"
             x="0"
             y="0.3"
             width="14.3"
             height="14.7" />
        </g>
        <g
           id="Rectangle-6"
           transform="translate(16.000000, 16.000000)"
           fill="#F6C443">
          <rect
             id="rect167"
             x="0"
             y="0.3"
             width="14.3"
             height="14.7" />
        </g>
      </g>
    </g>
    <polygon
       id="polygon172"
       fill="#333333"
       fill-rule="nonzero"
       points="636 267 636 266 657.1 266 676 284.3 675.3 285 656.7 267" />
    <polygon
       id="Path-Copy"
       fill="#333333"
       fill-rule="nonzero"
       points="636 44 636 43 657.1 43 676 61.3 675.3 62 656.7 44" />
    <polygon
       id="polygon175"
       fill="#333333"
       fill-rule="nonzero"
       points="290 41 290 40 311.1 40 330 58.3 329.3 59 310.7 41" />
    <path
       d="M637.5,243.812 C637.299999,243.812 637.130001,243.742001 636.99,243.602 C636.849999,243.461999 636.78,243.284001 636.78,243.068 C636.78,242.835999 636.849999,242.650001 636.99,242.51 C637.130001,242.369999 637.299999,242.3 637.5,242.3 C637.692001,242.3 637.857999,242.369999 637.998,242.51 C638.138001,242.650001 638.208,242.835999 638.208,243.068 C638.208,243.284001 638.138001,243.461999 637.998,243.602 C637.857999,243.742001 637.692001,243.812 637.5,243.812 Z M637.5,248.144 C637.299999,248.144 637.130001,248.074001 636.99,247.934 C636.849999,247.793999 636.78,247.616001 636.78,247.4 C636.78,247.167999 636.849999,246.982001 636.99,246.842 C637.130001,246.701999 637.299999,246.632 637.5,246.632 C637.692001,246.632 637.857999,246.701999 637.998,246.842 C638.138001,246.982001 638.208,247.167999 638.208,247.4 C638.208,247.616001 638.138001,247.793999 637.998,247.934 C637.857999,248.074001 637.692001,248.144 637.5,248.144 Z M641.988,248.144 C641.627998,248.144 641.294002,248.092001 640.986,247.988 C640.677998,247.883999 640.414001,247.738001 640.194,247.55 C639.973999,247.361999 639.800001,247.140001 639.672,246.884 C639.543999,246.627999 639.48,246.348002 639.48,246.044 C639.48,245.795999 639.522,245.566001 639.606,245.354 C639.69,245.141999 639.797999,244.950001 639.93,244.778 C640.062001,244.605999 640.213999,244.454001 640.386,244.322 C640.558001,244.189999 640.735999,244.076 640.92,243.98 L640.92,243.932 C640.639999,243.731999 640.392001,243.490001 640.176,243.206 C639.959999,242.921999 639.852,242.576002 639.852,242.168 C639.852,241.871999 639.907999,241.604001 640.02,241.364 C640.132001,241.123999 640.283999,240.918001 640.476,240.746 C640.668001,240.573999 640.895999,240.44 641.16,240.344 C641.424001,240.248 641.711998,240.2 642.024,240.2 C642.360002,240.2 642.659999,240.25 642.924,240.35 C643.188001,240.45 643.413999,240.589999 643.602,240.77 C643.790001,240.950001 643.934,241.165999 644.034,241.418 C644.134,241.670001 644.184,241.943999 644.184,242.24 C644.184,242.440001 644.15,242.631999 644.082,242.816 C644.014,243.000001 643.930001,243.171999 643.83,243.332 C643.729999,243.492001 643.618001,243.635999 643.494,243.764 C643.369999,243.892001 643.248001,244 643.128,244.088 L643.128,244.136 C643.296001,244.232 643.459999,244.341999 643.62,244.466 C643.780001,244.590001 643.921999,244.729999 644.046,244.886 C644.170001,245.042001 644.27,245.219999 644.346,245.42 C644.422,245.620001 644.46,245.847999 644.46,246.104 C644.46,246.392001 644.400001,246.659999 644.28,246.908 C644.159999,247.156001 643.992001,247.371999 643.776,247.556 C643.559999,247.740001 643.300002,247.883999 642.996,247.988 C642.691998,248.092001 642.356002,248.144 641.988,248.144 Z M642.528,243.824 C642.784001,243.591999 642.981999,243.348001 643.122,243.092 C643.262001,242.835999 643.332,242.568001 643.332,242.288 C643.332,241.903998 643.216001,241.582001 642.984,241.322 C642.751999,241.061999 642.424002,240.932 642,240.932 C641.639998,240.932 641.344001,241.043999 641.112,241.268 C640.879999,241.492001 640.764,241.791998 640.764,242.168 C640.764,242.400001 640.812,242.597999 640.908,242.762 C641.004,242.926001 641.133999,243.071999 641.298,243.2 C641.462001,243.328001 641.649999,243.442 641.862,243.542 C642.074001,243.642 642.295999,243.736 642.528,243.824 Z M642.012,247.412 C642.460002,247.412 642.821999,247.288001 643.098,247.04 C643.374001,246.791999 643.512,246.468002 643.512,246.068 C643.512,245.819999 643.456001,245.608001 643.344,245.432 C643.231999,245.255999 643.080001,245.102001 642.888,244.97 C642.695999,244.837999 642.474001,244.718001 642.222,244.61 C641.969999,244.501999 641.708001,244.392001 641.436,244.28 C641.131998,244.488001 640.878001,244.729999 640.674,245.006 C640.469999,245.282001 640.368,245.595998 640.368,245.948 C640.368,246.164001 640.41,246.359999 640.494,246.536 C640.578,246.712001 640.693999,246.865999 640.842,246.998 C640.990001,247.130001 641.163999,247.232 641.364,247.304 C641.564001,247.376 641.779999,247.412 642.012,247.412 Z M647.94,248.144 C647.163996,248.144 646.560002,247.800003 646.128,247.112 C645.695998,246.423997 645.48,245.436006 645.48,244.148 C645.48,242.859994 645.695998,241.880003 646.128,241.208 C646.560002,240.535997 647.163996,240.2 647.94,240.2 C648.708004,240.2 649.307998,240.535997 649.74,241.208 C650.172002,241.880003 650.388,242.859994 650.388,244.148 C650.388,245.436006 650.172002,246.423997 649.74,247.112 C649.307998,247.800003 648.708004,248.144 647.94,248.144 Z M647.94,247.352 C648.164001,247.352 648.365999,247.290001 648.546,247.166 C648.726001,247.041999 648.881999,246.850001 649.014,246.59 C649.146001,246.329999 649.248,245.998002 649.32,245.594 C649.392,245.189998 649.428,244.708003 649.428,244.148 C649.428,243.587997 649.392,243.108002 649.32,242.708 C649.248,242.307998 649.146001,241.982001 649.014,241.73 C648.881999,241.477999 648.726001,241.292001 648.546,241.172 C648.365999,241.051999 648.164001,240.992 647.94,240.992 C647.715999,240.992 647.512001,241.051999 647.328,241.172 C647.143999,241.292001 646.986001,241.477999 646.854,241.73 C646.721999,241.982001 646.62,242.307998 646.548,242.708 C646.476,243.108002 646.44,243.587997 646.44,244.148 C646.44,245.268006 646.577999,246.081997 646.854,246.59 C647.130001,247.098003 647.491998,247.352 647.94,247.352 Z M637.5,258.812 C637.299999,258.812 637.130001,258.742001 636.99,258.602 C636.849999,258.461999 636.78,258.284001 636.78,258.068 C636.78,257.835999 636.849999,257.650001 636.99,257.51 C637.130001,257.369999 637.299999,257.3 637.5,257.3 C637.692001,257.3 637.857999,257.369999 637.998,257.51 C638.138001,257.650001 638.208,257.835999 638.208,258.068 C638.208,258.284001 638.138001,258.461999 637.998,258.602 C637.857999,258.742001 637.692001,258.812 637.5,258.812 Z M637.5,263.144 C637.299999,263.144 637.130001,263.074001 636.99,262.934 C636.849999,262.793999 636.78,262.616001 636.78,262.4 C636.78,262.167999 636.849999,261.982001 636.99,261.842 C637.130001,261.701999 637.299999,261.632 637.5,261.632 C637.692001,261.632 637.857999,261.701999 637.998,261.842 C638.138001,261.982001 638.208,262.167999 638.208,262.4 C638.208,262.616001 638.138001,262.793999 637.998,262.934 C637.857999,263.074001 637.692001,263.144 637.5,263.144 Z M642.636,263 L642.636,260.888 L639.192,260.888 L639.192,260.24 L642.468,255.344 L643.572,255.344 L643.572,260.096 L644.616,260.096 L644.616,260.888 L643.572,260.888 L643.572,263 L642.636,263 Z M640.236,260.096 L642.636,260.096 L642.636,257.876 C642.636,257.667999 642.642,257.422001 642.654,257.138 C642.666,256.853999 642.68,256.608001 642.696,256.4 L642.648,256.4 C642.552,256.584001 642.452001,256.763999 642.348,256.94 C642.243999,257.116001 642.136001,257.295999 642.024,257.48 L640.236,260.096 Z M648.6,263 L648.6,260.888 L645.156,260.888 L645.156,260.24 L648.432,255.344 L649.536,255.344 L649.536,260.096 L650.58,260.096 L650.58,260.888 L649.536,260.888 L649.536,263 L648.6,263 Z M646.2,260.096 L648.6,260.096 L648.6,257.876 C648.6,257.667999 648.606,257.422001 648.618,257.138 C648.63,256.853999 648.644,256.608001 648.66,256.4 L648.612,256.4 C648.516,256.584001 648.416001,256.763999 648.312,256.94 C648.207999,257.116001 648.100001,257.295999 647.988,257.48 L646.2,260.096 Z M653.748,263.144 C653.443998,263.144 653.166001,263.114 652.914,263.054 C652.661999,262.994 652.432001,262.914 652.224,262.814 C652.015999,262.713999 651.830001,262.600001 651.666,262.472 C651.501999,262.343999 651.356001,262.208001 651.228,262.064 L651.732,261.416 C651.964001,261.656001 652.233998,261.867999 652.542,262.052 C652.850002,262.236001 653.231998,262.328 653.688,262.328 C654.152002,262.328 654.531999,262.202001 654.828,261.95 C655.124001,261.697999 655.272,261.356002 655.272,260.924 C655.272,260.699999 655.23,260.494001 655.146,260.306 C655.062,260.117999 654.924001,259.956001 654.732,259.82 C654.539999,259.683999 654.288002,259.58 653.976,259.508 C653.663998,259.436 653.280002,259.4 652.824,259.4 L652.824,258.644 C653.232002,258.644 653.573999,258.608 653.85,258.536 C654.126001,258.464 654.349999,258.364001 654.522,258.236 C654.694001,258.107999 654.816,257.956001 654.888,257.78 C654.96,257.603999 654.996,257.416001 654.996,257.216 C654.996,256.839998 654.878001,256.544001 654.642,256.328 C654.405999,256.111999 654.084002,256.004 653.676,256.004 C653.355998,256.004 653.062001,256.075999 652.794,256.22 C652.525999,256.364001 652.276001,256.551999 652.044,256.784 L651.516,256.16 C651.812001,255.879999 652.137998,255.650001 652.494,255.47 C652.850002,255.289999 653.255998,255.2 653.712,255.2 C654.048002,255.2 654.355999,255.244 654.636,255.332 C654.916001,255.42 655.157999,255.545999 655.362,255.71 C655.566001,255.874001 655.723999,256.075999 655.836,256.316 C655.948001,256.556001 656.004,256.831998 656.004,257.144 C656.004,257.608002 655.876001,257.987999 655.62,258.284 C655.363999,258.580001 655.028002,258.807999 654.612,258.968 L654.612,259.016 C654.844001,259.072 655.059999,259.153999 655.26,259.262 C655.460001,259.370001 655.635999,259.505999 655.788,259.67 C655.940001,259.834001 656.058,260.023999 656.142,260.24 C656.226,260.456001 656.268,260.695999 656.268,260.96 C656.268,261.296002 656.202001,261.599999 656.07,261.872 C655.937999,262.144001 655.758001,262.373999 655.53,262.562 C655.301999,262.750001 655.036002,262.894 654.732,262.994 C654.427998,263.094 654.100002,263.144 653.748,263.144 Z"
       id=":80:443"
       fill="#333333"
       fill-rule="nonzero" />
    <text
       id=":80-:443-copy-2"
       font-family="SourceSansPro-Regular, Source Sans Pro"
       font-size="12"
       font-weight="normal"
       fill="#333333">
      <tspan
         x="636"
         y="24"
         id="tspan178">:80</tspan>
      <tspan
         x="636"
         y="39"
         id="tspan180">:443</tspan>
    </text>
    <path
       d="M291.5,17.812 C291.299999,17.812 291.130001,17.7420007 290.99,17.602 C290.849999,17.4619993 290.78,17.2840011 290.78,17.068 C290.78,16.8359988 290.849999,16.6500007 290.99,16.51 C291.130001,16.3699993 291.299999,16.3 291.5,16.3 C291.692001,16.3 291.857999,16.3699993 291.998,16.51 C292.138001,16.6500007 292.208,16.8359988 292.208,17.068 C292.208,17.2840011 292.138001,17.4619993 291.998,17.602 C291.857999,17.7420007 291.692001,17.812 291.5,17.812 Z M291.5,22.144 C291.299999,22.144 291.130001,22.0740007 290.99,21.934 C290.849999,21.7939993 290.78,21.6160011 290.78,21.4 C290.78,21.1679988 290.849999,20.9820007 290.99,20.842 C291.130001,20.7019993 291.299999,20.632 291.5,20.632 C291.692001,20.632 291.857999,20.7019993 291.998,20.842 C292.138001,20.9820007 292.208,21.1679988 292.208,21.4 C292.208,21.6160011 292.138001,21.7939993 291.998,21.934 C291.857999,22.0740007 291.692001,22.144 291.5,22.144 Z M295.988,22.144 C295.627998,22.144 295.294002,22.0920005 294.986,21.988 C294.677998,21.8839995 294.414001,21.7380009 294.194,21.55 C293.973999,21.3619991 293.800001,21.1400013 293.672,20.884 C293.543999,20.6279987 293.48,20.3480015 293.48,20.044 C293.48,19.7959988 293.522,19.5660011 293.606,19.354 C293.69,19.1419989 293.797999,18.9500009 293.93,18.778 C294.062001,18.6059991 294.213999,18.4540007 294.386,18.322 C294.558001,18.1899993 294.735999,18.0760005 294.92,17.98 L294.92,17.932 C294.639999,17.731999 294.392001,17.4900014 294.176,17.206 C293.959999,16.9219986 293.852,16.576002 293.852,16.168 C293.852,15.8719985 293.907999,15.6040012 294.02,15.364 C294.132001,15.1239988 294.283999,14.9180009 294.476,14.746 C294.668001,14.5739991 294.895999,14.4400005 295.16,14.344 C295.424001,14.2479995 295.711998,14.2 296.024,14.2 C296.360002,14.2 296.659999,14.2499995 296.924,14.35 C297.188001,14.4500005 297.413999,14.5899991 297.602,14.77 C297.790001,14.9500009 297.934,15.1659987 298.034,15.418 C298.134001,15.6700013 298.184,15.9439985 298.184,16.24 C298.184,16.440001 298.15,16.6319991 298.082,16.816 C298.014,17.0000009 297.930001,17.1719992 297.83,17.332 C297.73,17.4920008 297.618001,17.6359994 297.494,17.764 C297.369999,17.8920006 297.248001,17.9999996 297.128,18.088 L297.128,18.136 C297.296001,18.2320005 297.459999,18.3419994 297.62,18.466 C297.780001,18.5900006 297.921999,18.7299992 298.046,18.886 C298.170001,19.0420008 298.27,19.219999 298.346,19.42 C298.422,19.620001 298.46,19.8479987 298.46,20.104 C298.46,20.3920014 298.400001,20.6599988 298.28,20.908 C298.159999,21.1560012 297.992001,21.3719991 297.776,21.556 C297.559999,21.7400009 297.300002,21.8839995 296.996,21.988 C296.691998,22.0920005 296.356002,22.144 295.988,22.144 Z M296.528,17.824 C296.784001,17.5919988 296.981999,17.3480013 297.122,17.092 C297.262001,16.8359987 297.332,16.5680014 297.332,16.288 C297.332,15.9039981 297.216001,15.5820013 296.984,15.322 C296.751999,15.0619987 296.424002,14.932 296,14.932 C295.639998,14.932 295.344001,15.0439989 295.112,15.268 C294.879999,15.4920011 294.764,15.7919981 294.764,16.168 C294.764,16.4000012 294.812,16.5979992 294.908,16.762 C295.004,16.9260008 295.133999,17.0719994 295.298,17.2 C295.462001,17.3280006 295.649999,17.4419995 295.862,17.542 C296.074001,17.6420005 296.295999,17.7359996 296.528,17.824 Z M296.012,21.412 C296.460002,21.412 296.821999,21.2880012 297.098,21.04 C297.374001,20.7919988 297.512,20.468002 297.512,20.068 C297.512,19.8199988 297.456001,19.6080009 297.344,19.432 C297.231999,19.2559991 297.080001,19.1020007 296.888,18.97 C296.695999,18.8379993 296.474001,18.7180005 296.222,18.61 C295.969999,18.5019995 295.708001,18.3920006 295.436,18.28 C295.131998,18.488001 294.878001,18.7299986 294.674,19.006 C294.469999,19.2820014 294.368,19.5959982 294.368,19.948 C294.368,20.1640011 294.41,20.3599991 294.494,20.536 C294.578,20.7120009 294.693999,20.8659993 294.842,20.998 C294.990001,21.1300007 295.163999,21.2319996 295.364,21.304 C295.564001,21.3760004 295.779999,21.412 296.012,21.412 Z M301.94,22.144 C301.163996,22.144 300.560002,21.8000034 300.128,21.112 C299.695998,20.4239966 299.48,19.4360064 299.48,18.148 C299.48,16.8599936 299.695998,15.8800034 300.128,15.208 C300.560002,14.5359966 301.163996,14.2 301.94,14.2 C302.708004,14.2 303.307998,14.5359966 303.74,15.208 C304.172002,15.8800034 304.388,16.8599936 304.388,18.148 C304.388,19.4360064 304.172002,20.4239966 303.74,21.112 C303.307998,21.8000034 302.708004,22.144 301.94,22.144 Z M301.94,21.352 C302.164001,21.352 302.365999,21.2900006 302.546,21.166 C302.726001,21.0419994 302.881999,20.8500013 303.014,20.59 C303.146001,20.3299987 303.248,19.998002 303.32,19.594 C303.392,19.189998 303.428,18.7080028 303.428,18.148 C303.428,17.5879972 303.392,17.108002 303.32,16.708 C303.248,16.307998 303.146001,15.9820013 303.014,15.73 C302.881999,15.4779987 302.726001,15.2920006 302.546,15.172 C302.365999,15.0519994 302.164001,14.992 301.94,14.992 C301.715999,14.992 301.512001,15.0519994 301.328,15.172 C301.143999,15.2920006 300.986001,15.4779987 300.854,15.73 C300.721999,15.9820013 300.62,16.307998 300.548,16.708 C300.476,17.108002 300.44,17.5879972 300.44,18.148 C300.44,19.2680056 300.577999,20.0819975 300.854,20.59 C301.130001,21.0980025 301.491998,21.352 301.94,21.352 Z M291.5,32.812 C291.299999,32.812 291.130001,32.7420007 290.99,32.602 C290.849999,32.4619993 290.78,32.2840011 290.78,32.068 C290.78,31.8359988 290.849999,31.6500007 290.99,31.51 C291.130001,31.3699993 291.299999,31.3 291.5,31.3 C291.692001,31.3 291.857999,31.3699993 291.998,31.51 C292.138001,31.6500007 292.208,31.8359988 292.208,32.068 C292.208,32.2840011 292.138001,32.4619993 291.998,32.602 C291.857999,32.7420007 291.692001,32.812 291.5,32.812 Z M291.5,37.144 C291.299999,37.144 291.130001,37.0740007 290.99,36.934 C290.849999,36.7939993 290.78,36.6160011 290.78,36.4 C290.78,36.1679988 290.849999,35.9820007 290.99,35.842 C291.130001,35.7019993 291.299999,35.632 291.5,35.632 C291.692001,35.632 291.857999,35.7019993 291.998,35.842 C292.138001,35.9820007 292.208,36.1679988 292.208,36.4 C292.208,36.6160011 292.138001,36.7939993 291.998,36.934 C291.857999,37.0740007 291.692001,37.144 291.5,37.144 Z M296.636,37 L296.636,34.888 L293.192,34.888 L293.192,34.24 L296.468,29.344 L297.572,29.344 L297.572,34.096 L298.616,34.096 L298.616,34.888 L297.572,34.888 L297.572,37 L296.636,37 Z M294.236,34.096 L296.636,34.096 L296.636,31.876 C296.636,31.667999 296.642,31.4220014 296.654,31.138 C296.666,30.8539986 296.68,30.608001 296.696,30.4 L296.648,30.4 C296.552,30.5840009 296.452001,30.7639991 296.348,30.94 C296.243999,31.1160009 296.136001,31.2959991 296.024,31.48 L294.236,34.096 Z M302.6,37 L302.6,34.888 L299.156,34.888 L299.156,34.24 L302.432,29.344 L303.536,29.344 L303.536,34.096 L304.58,34.096 L304.58,34.888 L303.536,34.888 L303.536,37 L302.6,37 Z M300.2,34.096 L302.6,34.096 L302.6,31.876 C302.6,31.667999 302.606,31.4220014 302.618,31.138 C302.63,30.8539986 302.644,30.608001 302.66,30.4 L302.612,30.4 C302.516,30.5840009 302.416001,30.7639991 302.312,30.94 C302.207999,31.1160009 302.100001,31.2959991 301.988,31.48 L300.2,34.096 Z M307.748,37.144 C307.443998,37.144 307.166001,37.1140003 306.914,37.054 C306.661999,36.9939997 306.432001,36.9140005 306.224,36.814 C306.015999,36.7139995 305.830001,36.6000006 305.666,36.472 C305.501999,36.3439994 305.356001,36.2080007 305.228,36.064 L305.732,35.416 C305.964001,35.6560012 306.233998,35.8679991 306.542,36.052 C306.850002,36.2360009 307.231998,36.328 307.688,36.328 C308.152002,36.328 308.531999,36.2020013 308.828,35.95 C309.124001,35.6979987 309.272,35.3560022 309.272,34.924 C309.272,34.6999989 309.23,34.4940009 309.146,34.306 C309.062,34.1179991 308.924001,33.9560007 308.732,33.82 C308.539999,33.6839993 308.288002,33.5800004 307.976,33.508 C307.663998,33.4359996 307.280002,33.4 306.824,33.4 L306.824,32.644 C307.232002,32.644 307.573999,32.6080004 307.85,32.536 C308.126001,32.4639996 308.349999,32.3640006 308.522,32.236 C308.694001,32.1079994 308.816,31.9560009 308.888,31.78 C308.96,31.6039991 308.996,31.416001 308.996,31.216 C308.996,30.8399981 308.878001,30.5440011 308.642,30.328 C308.405999,30.1119989 308.084002,30.004 307.676,30.004 C307.355998,30.004 307.062001,30.0759993 306.794,30.22 C306.525999,30.3640007 306.276001,30.5519988 306.044,30.784 L305.516,30.16 C305.812001,29.8799986 306.137998,29.6500009 306.494,29.47 C306.850002,29.2899991 307.255998,29.2 307.712,29.2 C308.048002,29.2 308.355999,29.2439996 308.636,29.332 C308.916001,29.4200004 309.157999,29.5459992 309.362,29.71 C309.566001,29.8740008 309.723999,30.0759988 309.836,30.316 C309.948001,30.5560012 310.004,30.8319984 310.004,31.144 C310.004,31.6080023 309.876001,31.9879985 309.62,32.284 C309.363999,32.5800015 309.028002,32.8079992 308.612,32.968 L308.612,33.016 C308.844001,33.0720003 309.059999,33.1539995 309.26,33.262 C309.460001,33.3700005 309.635999,33.5059992 309.788,33.67 C309.940001,33.8340008 310.058,34.0239989 310.142,34.24 C310.226,34.4560011 310.268,34.6959987 310.268,34.96 C310.268,35.2960017 310.202001,35.5999986 310.07,35.872 C309.937999,36.1440014 309.758001,36.3739991 309.53,36.562 C309.301999,36.7500009 309.036002,36.8939995 308.732,36.994 C308.427998,37.0940005 308.100002,37.144 307.748,37.144 Z"
       id="path183"
       fill="#333333"
       fill-rule="nonzero" />
    <path
       d="M162,172.5 C164.222222,172.5 166.055556,172.5 167.5,172.5 C168.611111,172.5 170.277778,172.5 172.5,172.5 C186.811352,172.5 200.364116,167.818014 213.522396,159.787417 C223.790361,153.520802 233.025765,145.801619 246.669213,132.829356 C247.909581,131.650007 249.180721,130.434476 250.845465,128.837486 C250.961699,128.725982 254.100456,125.712923 255.012723,124.838771 C271.282539,109.248702 280.639996,101.269968 291.86034,94.3326938 C306.102838,85.5268933 320.62142,80.5 336.5,80.5 L690.5,80.5 C693.813115,80.5 696.5,77.8169288 696.5,74.5 C696.5,71.1830712 693.813115,68.5 690.5,68.5 L336.5,68.5 C318.262122,68.5 301.601936,74.1920971 285.556157,84.1128237 C273.408668,91.6233294 263.5682,100.013908 246.716835,116.161229 C245.799913,117.039842 242.657485,120.056425 242.544697,120.164622 C240.891684,121.75036 239.632264,122.954683 238.407015,124.119656 C225.3369,136.546792 216.634476,143.820496 207.277348,149.531221 C195.899544,156.475179 184.458021,160.5 172.5,160.5 L164.5,160.5"
       id="path185"
       stroke="#979797"
       stroke-dasharray="4,2"
       fill-rule="nonzero" />
    <path
       d="M165,306.5 L171.5,306.5 C186.201543,306.5 199.914479,301.818014 213,294 C223.361934,287.520802 232.605699,279.801619 246,267 C247.502991,265.650007 248.775282,264.434476 250,263 C250.557872,262.725982 253.699471,259.712923 255,259 C270.897109,243.248702 280.263038,235.269968 291,228 C305.748934,219.526893 319.548074,215.511662 335.5,215.5 L690.5,215.5 C693.811758,215.511662 696.5,212.82276 696.5,209.5 C696.5,206.188902 693.811758,203.5 690.5,203.5 L335.5,203.5 C317.186641,203.5 301.243956,208.192097 285,218 C273.025163,225.623329 263.175786,234.013908 246,250 C245.391412,251.039842 242.246139,254.056425 242,254 C240.47874,255.75036 239.218179,256.954683 238,258 C224.909873,270.546792 216.199571,277.820496 207,284 C195.445866,290.475179 183.846082,294.488338 171.5,294.5 L162,294.5"
       id="Path-2-Copy"
       stroke="#979797"
       stroke-dasharray="4,2"
       fill-rule="nonzero"
       transform="translate(429.250000, 255.000000) scale(1, -1) translate(-429.250000, -255.000000) " />
    <rect
       id="rect188"
       fill="#ECEDF2"
       fill-rule="nonzero"
       opacity="0.742466518"
       x="341"
       y="60"
       width="150"
       height="30" />
    <rect
       id="rect190"
       fill="#ECEDF2"
       fill-rule="nonzero"
       opacity="0.746814546"
       x="686"
       y="260"
       width="21"
       height="75" />
    <rect
       id="Rectangle-Copy-2"
       fill="#ECEDF2"
       fill-rule="nonzero"
       opacity="0.746814546"
       x="686"
       y="38"
       width="21"
       height="75" />
    <polyline
       id="polyline193"
       stroke="#979797"
       stroke-linecap="round"
       stroke-linejoin="round"
       points="161.5 157.5 164.5 160.5 161.5 163.5" />
    <polyline
       id="Path-3-Copy-5"
       stroke="#979797"
       stroke-linecap="round"
       stroke-linejoin="round"
       points="162 200.5 165 203.5 162 206.5" />
    <polyline
       id="Path-3-Copy-7"
       stroke="#979797"
       stroke-linecap="round"
       stroke-linejoin="round"
       points="671 291.5 674 294.5 671 297.5" />
    <polyline
       id="Path-3-Copy-2"
       stroke="#979797"
       stroke-linecap="round"
       stroke-linejoin="round"
       points="328 66 331 69 328 72" />
    <polyline
       id="Path-3-Copy"
       stroke="#979797"
       stroke-linecap="round"
       stroke-linejoin="round"
       transform="translate(163.000000, 172.500000) scale(-1, 1) translate(-163.000000, -172.500000) "
       points="161.5 169.5 164.5 172.5 161.5 175.5" />
    <polyline
       id="Path-3-Copy-6"
       stroke="#979797"
       stroke-linecap="round"
       stroke-linejoin="round"
       transform="translate(163.000000, 215.500000) scale(-1, 1) translate(-163.000000, -215.500000) "
       points="161.5 212.5 164.5 215.5 161.5 218.5" />
    <polyline
       id="Path-3-Copy-3"
       stroke="#979797"
       stroke-linecap="round"
       stroke-linejoin="round"
       transform="translate(506.000000, 80.500000) scale(-1, 1) translate(-506.000000, -80.500000) "
       points="504.5 77.5 507.5 80.5 504.5 83.5" />
    <polyline
       id="Path-3-Copy-4"
       stroke="#979797"
       stroke-linecap="round"
       stroke-linejoin="round"
       points="670 65.5 673 68.5 670 71.5" />
    <path
       d="M717.287,48 L717.287,39.472 L718.366,39.472 L718.366,43.047 L722.331,43.047 L722.331,39.472 L723.423,39.472 L723.423,48 L722.331,48 L722.331,43.983 L718.366,43.983 L718.366,48 L717.287,48 Z M728.22,48.156 C727.795331,48.156 727.398835,48.0801674 727.0305,47.9285 C726.662165,47.7768326 726.341501,47.5601681 726.0685,47.2785 C725.795499,46.9968319 725.581001,46.6523354 725.425,46.245 C725.268999,45.8376646 725.191,45.3740026 725.191,44.854 C725.191,44.3339974 725.271166,43.8681687 725.4315,43.4565 C725.591834,43.0448313 725.804165,42.6960014 726.0685,42.41 C726.332835,42.1239986 726.633998,41.9051674 726.972,41.7535 C727.310002,41.6018326 727.660998,41.526 728.025,41.526 C728.423669,41.526 728.781165,41.5953326 729.0975,41.734 C729.413835,41.8726674 729.678166,42.0719987 729.8905,42.332 C730.102834,42.5920013 730.265333,42.9039982 730.378,43.268 C730.490667,43.6320018 730.547,44.0393311 730.547,44.49 C730.547,44.6026672 730.544833,44.7131661 730.5405,44.8215 C730.536167,44.9298339 730.525333,45.0229996 730.508,45.101 L726.244,45.101 C726.287334,45.7770034 726.497498,46.3121647 726.8745,46.7065 C727.251502,47.1008353 727.74333,47.298 728.35,47.298 C728.653335,47.298 728.932832,47.2525005 729.1885,47.1615 C729.444168,47.0704995 729.688999,46.9513341 729.923,46.804 L730.3,47.506 C730.022665,47.6793342 729.715002,47.8309993 729.377,47.961 C729.038998,48.0910006 728.653336,48.156 728.22,48.156 Z M726.231,44.334 L729.611,44.334 C729.611,43.6926635 729.474501,43.2051683 729.2015,42.8715 C728.928499,42.5378317 728.545002,42.371 728.051,42.371 C727.825666,42.371 727.611168,42.4143329 727.4075,42.501 C727.203832,42.5876671 727.019667,42.7154992 726.855,42.8845 C726.690333,43.0535008 726.553834,43.2593321 726.4455,43.502 C726.337166,43.7446679 726.265667,44.0219984 726.231,44.334 Z M734.603,48.156 C734.186998,48.156 733.797002,48.0823341 733.433,47.935 C733.068998,47.7876659 732.754835,47.5731681 732.4905,47.2915 C732.226165,47.0098319 732.018167,46.6631687 731.8665,46.2515 C731.714833,45.8398313 731.639,45.3740026 731.639,44.854 C731.639,44.3253307 731.721333,43.8551687 731.886,43.4435 C732.050667,43.0318313 732.271665,42.6830014 732.549,42.397 C732.826335,42.1109986 733.149165,41.8943341 733.5175,41.747 C733.885835,41.5996659 734.273665,41.526 734.681,41.526 C735.097002,41.526 735.452332,41.5996659 735.747,41.747 C736.041668,41.8943341 736.301666,42.0676657 736.527,42.267 L735.981,42.969 C735.798999,42.8043325 735.606168,42.6700005 735.4025,42.566 C735.198832,42.4619995 734.971335,42.41 734.72,42.41 C734.433999,42.41 734.169668,42.4684994 733.927,42.5855 C733.684332,42.7025006 733.476334,42.8693322 733.303,43.086 C733.129666,43.3026677 732.993167,43.5604985 732.8935,43.8595 C732.793833,44.1585015 732.744,44.4899982 732.744,44.854 C732.744,45.2180018 732.791666,45.5473319 732.887,45.842 C732.982334,46.1366681 733.114499,46.3901656 733.2835,46.6025 C733.452501,46.8148344 733.658332,46.9794994 733.901,47.0965 C734.143668,47.2135006 734.407999,47.272 734.694,47.272 C734.988668,47.272 735.259499,47.2091673 735.5065,47.0835 C735.753501,46.9578327 735.976666,46.8083342 736.176,46.635 L736.644,47.35 C736.357999,47.6013346 736.041668,47.7984993 735.695,47.9415 C735.348332,48.0845007 734.984335,48.156 734.603,48.156 Z M739.426,48 L739.426,42.553 L737.307,42.553 L737.307,41.682 L742.611,41.682 L742.611,42.553 L740.492,42.553 L740.492,48 L739.426,48 Z M745.471,48.156 C744.942331,48.156 744.502502,48.0000016 744.1515,47.688 C743.800498,47.3759984 743.625,46.9340029 743.625,46.362 C743.625,45.6686632 743.932664,45.1378352 744.548,44.7695 C745.163336,44.4011648 746.146993,44.1433341 747.499,43.996 C747.499,43.7966657 747.4795,43.6016676 747.4405,43.411 C747.4015,43.2203324 747.334334,43.0513341 747.239,42.904 C747.143666,42.7566659 747.011501,42.6375005 746.8425,42.5465 C746.673499,42.4554995 746.459001,42.41 746.199,42.41 C745.834998,42.41 745.492668,42.4793326 745.172,42.618 C744.851332,42.7566674 744.565335,42.9126658 744.314,43.086 L743.898,42.345 C744.192668,42.1543324 744.552331,41.9701676 744.977,41.7925 C745.401669,41.6148324 745.869664,41.526 746.381,41.526 C747.152337,41.526 747.711332,41.7621643 748.058,42.2345 C748.404668,42.7068357 748.578,43.3373294 748.578,44.126 L748.578,48 L747.694,48 L747.603,47.246 L747.564,47.246 C747.260665,47.4973346 746.935668,47.7118324 746.589,47.8895 C746.242332,48.0671676 745.869669,48.156 745.471,48.156 Z M745.783,47.298 C746.086335,47.298 746.372332,47.2265007 746.641,47.0835 C746.909668,46.9404993 747.195665,46.7303347 747.499,46.453 L747.499,44.698 C746.970331,44.7673337 746.526168,44.8496662 746.1665,44.945 C745.806832,45.0403338 745.516501,45.1529994 745.2955,45.283 C745.074499,45.4130007 744.914167,45.5624992 744.8145,45.7315 C744.714833,45.9005008 744.665,46.0846657 744.665,46.284 C744.665,46.6480018 744.773332,46.9079992 744.99,47.064 C745.206668,47.2200008 745.470998,47.298 745.783,47.298 Z M750.567,48 L750.567,41.682 L751.633,41.682 L751.633,44.243 L754.675,44.243 L754.675,41.682 L755.741,41.682 L755.741,48 L754.675,48 L754.675,45.192 L751.633,45.192 L751.633,48 L750.567,48 Z M758.094,48 L758.094,50.236 L757.171,50.236 L757.054,47.805 L757.054,47.129 L757.366,47.129 C757.452667,47.0769997 757.537166,47.0055005 757.6195,46.9145 C757.701834,46.8234995 757.777666,46.6826676 757.847,46.492 C757.916334,46.3013324 757.985666,46.0456683 758.055,45.725 C758.124334,45.4043317 758.189333,44.9883359 758.25,44.477 L758.588,41.682 L762.514,41.682 L762.514,47.129 L763.437,47.129 L763.437,47.805 L763.333,50.236 L762.41,50.236 L762.41,48 L758.094,48 Z M759.186,44.685 C759.116666,45.3090031 759.023501,45.8159981 758.9065,46.206 C758.789499,46.596002 758.657334,46.9036655 758.51,47.129 L761.448,47.129 L761.448,42.553 L759.433,42.553 L759.186,44.685 Z M766.245,48.156 C765.716331,48.156 765.276502,48.0000016 764.9255,47.688 C764.574498,47.3759984 764.399,46.9340029 764.399,46.362 C764.399,45.6686632 764.706664,45.1378352 765.322,44.7695 C765.937336,44.4011648 766.920993,44.1433341 768.273,43.996 C768.273,43.7966657 768.2535,43.6016676 768.2145,43.411 C768.1755,43.2203324 768.108334,43.0513341 768.013,42.904 C767.917666,42.7566659 767.785501,42.6375005 767.6165,42.5465 C767.447499,42.4554995 767.233001,42.41 766.973,42.41 C766.608998,42.41 766.266668,42.4793326 765.946,42.618 C765.625332,42.7566674 765.339335,42.9126658 765.088,43.086 L764.672,42.345 C764.966668,42.1543324 765.326331,41.9701676 765.751,41.7925 C766.175669,41.6148324 766.643664,41.526 767.155,41.526 C767.926337,41.526 768.485332,41.7621643 768.832,42.2345 C769.178668,42.7068357 769.352,43.3373294 769.352,44.126 L769.352,48 L768.468,48 L768.377,47.246 L768.338,47.246 C768.034665,47.4973346 767.709668,47.7118324 767.363,47.8895 C767.016332,48.0671676 766.643669,48.156 766.245,48.156 Z M766.557,47.298 C766.860335,47.298 767.146332,47.2265007 767.415,47.0835 C767.683668,46.9404993 767.969665,46.7303347 768.273,46.453 L768.273,44.698 C767.744331,44.7673337 767.300168,44.8496662 766.9405,44.945 C766.580832,45.0403338 766.290501,45.1529994 766.0695,45.283 C765.848499,45.4130007 765.688167,45.5624992 765.5885,45.7315 C765.488833,45.9005008 765.439,46.0846657 765.439,46.284 C765.439,46.6480018 765.547332,46.9079992 765.764,47.064 C765.980668,47.2200008 766.244998,47.298 766.557,47.298 Z M771.341,50.665 L771.341,41.682 L772.225,41.682 L772.316,42.41 L772.355,42.41 C772.641001,42.1673321 772.955165,41.9593342 773.2975,41.786 C773.639835,41.6126658 773.997331,41.526 774.37,41.526 C774.777335,41.526 775.136998,41.6018326 775.449,41.7535 C775.761002,41.9051674 776.020999,42.1218319 776.229,42.4035 C776.437001,42.6851681 776.595166,43.0231647 776.7035,43.4175 C776.811834,43.8118353 776.866,44.2559975 776.866,44.75 C776.866,45.287336 776.792334,45.7661646 776.645,46.1865 C776.497666,46.6068354 776.298335,46.9643319 776.047,47.259 C775.795665,47.5536681 775.505335,47.7768326 775.176,47.9285 C774.846665,48.0801674 774.500002,48.156 774.136,48.156 C773.841332,48.156 773.548835,48.0910006 773.2585,47.961 C772.968165,47.8309993 772.675668,47.6533345 772.381,47.428 L772.407,48.533 L772.407,50.665 L771.341,50.665 Z M773.954,47.259 C774.214001,47.259 774.454499,47.2005006 774.6755,47.0835 C774.896501,46.9664994 775.087166,46.8018344 775.2475,46.5895 C775.407834,46.3771656 775.5335,46.1150016 775.6245,45.803 C775.7155,45.4909984 775.761,45.1400019 775.761,44.75 C775.761,44.4033316 775.730667,44.0870014 775.67,43.801 C775.609333,43.5149986 775.511834,43.2701677 775.3775,43.0665 C775.243166,42.8628323 775.069834,42.7046672 774.8575,42.592 C774.645166,42.4793328 774.391668,42.423 774.097,42.423 C773.828332,42.423 773.557501,42.4966659 773.2845,42.644 C773.011499,42.7913341 772.719002,43.0036653 772.407,43.281 L772.407,46.596 C772.693001,46.8386679 772.970332,47.0098328 773.239,47.1095 C773.507668,47.2091672 773.745999,47.259 773.954,47.259 Z M779.947,48 L779.947,42.553 L777.828,42.553 L777.828,41.682 L783.132,41.682 L783.132,42.553 L781.013,42.553 L781.013,48 L779.947,48 Z M784.536,48 L784.536,41.682 L785.602,41.682 L785.602,44.243 L788.644,44.243 L788.644,41.682 L789.71,41.682 L789.71,48 L788.644,48 L788.644,45.192 L785.602,45.192 L785.602,48 L784.536,48 Z M791.842,48 L791.842,41.682 L792.908,41.682 L792.908,44.009 L793.805,44.009 C794.177669,44.009 794.517832,44.0479996 794.8255,44.126 C795.133168,44.2040004 795.397499,44.3231659 795.6185,44.4835 C795.839501,44.6438341 796.010666,44.8474988 796.132,45.0945 C796.253334,45.3415012 796.314,45.6383316 796.314,45.985 C796.314,46.3403351 796.253334,46.6436654 796.132,46.895 C796.010666,47.1463346 795.839501,47.3543325 795.6185,47.519 C795.397499,47.6836675 795.133168,47.8049996 794.8255,47.883 C794.517832,47.9610004 794.177669,48 793.805,48 L791.842,48 Z M792.908,47.142 L793.688,47.142 C794.736672,47.142 795.261,46.7563372 795.261,45.985 C795.261,45.5863313 795.133168,45.2960009 794.8775,45.114 C794.621832,44.9319991 794.225336,44.841 793.688,44.841 L792.908,44.841 L792.908,47.142 Z M797.406,48 L797.406,41.682 L798.472,41.682 L798.472,48 L797.406,48 Z M800.604,48 L800.604,41.682 L801.644,41.682 L801.644,44.308 C801.644,44.6460017 801.633167,45.016498 801.6115,45.4195 C801.589833,45.822502 801.566,46.2276646 801.54,46.635 L801.592,46.635 C801.713334,46.4356657 801.854166,46.2103346 802.0145,45.959 C802.174834,45.7076654 802.311333,45.4823343 802.424,45.283 L804.816,41.682 L805.817,41.682 L805.817,48 L804.777,48 L804.777,45.374 C804.777,45.0359983 804.787833,44.665502 804.8095,44.2625 C804.831167,43.859498 804.855,43.4500021 804.881,43.034 L804.829,43.034 C804.707666,43.2333343 804.566834,43.4608321 804.4065,43.7165 C804.246166,43.9721679 804.109667,44.1953324 803.997,44.386 L801.592,48 L800.604,48 Z M803.243,40.551 C802.878998,40.551 802.571335,40.4946672 802.32,40.382 C802.068665,40.2693328 801.860667,40.1198343 801.696,39.9335 C801.531333,39.7471657 801.41,39.5348345 801.332,39.2965 C801.254,39.0581655 801.210667,38.8133346 801.202,38.562 L802.086,38.562 C802.094667,38.7440009 802.1185,38.9194992 802.1575,39.0885 C802.1965,39.2575008 802.2615,39.4026661 802.3525,39.524 C802.4435,39.6453339 802.560499,39.742833 802.7035,39.8165 C802.846501,39.890167 803.026332,39.927 803.243,39.927 C803.459668,39.927 803.639499,39.890167 803.7825,39.8165 C803.925501,39.742833 804.0425,39.6453339 804.1335,39.524 C804.2245,39.4026661 804.2895,39.2575008 804.3285,39.0885 C804.3675,38.9194992 804.391333,38.7440009 804.4,38.562 L805.284,38.562 C805.266667,38.8133346 805.221167,39.0581655 805.1475,39.2965 C805.073833,39.5348345 804.954667,39.7471657 804.79,39.9335 C804.625333,40.1198343 804.417335,40.2693328 804.166,40.382 C803.914665,40.4946672 803.607002,40.551 803.243,40.551 Z"
       id="Нестандартный"
       fill="#333333"
       fill-rule="nonzero" />
    <path
       d="M726.7255,271.156 C726.188164,271.156 725.694169,271.056334 725.2435,270.857 C724.792831,270.657666 724.400668,270.369502 724.067,269.9925 C723.733332,269.615498 723.473334,269.151836 723.287,268.6015 C723.100666,268.051164 723.0075,267.429337 723.0075,266.736 C723.0075,266.05133 723.102832,265.436003 723.2935,264.89 C723.484168,264.343997 723.748498,263.880335 724.0865,263.499 C724.424502,263.117665 724.823164,262.825168 725.2825,262.6215 C725.741836,262.417832 726.244497,262.316 726.7905,262.316 C727.310503,262.316 727.767665,262.422166 728.162,262.6345 C728.556335,262.846834 728.879165,263.091665 729.1305,263.369 L728.5455,264.071 C728.320166,263.828332 728.064501,263.633334 727.7785,263.486 C727.492499,263.338666 727.167502,263.265 726.8035,263.265 C726.396165,263.265 726.027835,263.345166 725.6985,263.5055 C725.369165,263.665834 725.087501,263.895499 724.8535,264.1945 C724.619499,264.493501 724.439667,264.855331 724.314,265.28 C724.188333,265.704669 724.1255,266.181331 724.1255,266.71 C724.1255,267.247336 724.188333,267.730498 724.314,268.1595 C724.439667,268.588502 724.615166,268.954665 724.8405,269.258 C725.065834,269.561335 725.340998,269.795333 725.666,269.96 C725.991002,270.124667 726.357165,270.207 726.7645,270.207 C727.180502,270.207 727.544498,270.122501 727.8565,269.9535 C728.168502,269.784499 728.463165,269.548335 728.7405,269.245 L729.3385,269.921 C729.000498,270.311002 728.619169,270.614332 728.1945,270.831 C727.769831,271.047668 727.280169,271.156 726.7255,271.156 Z M732.2115,271 L732.2115,265.553 L730.0925,265.553 L730.0925,264.682 L735.3965,264.682 L735.3965,265.553 L733.2775,265.553 L733.2775,271 L732.2115,271 Z M738.2565,271.156 C737.727831,271.156 737.288002,271.000002 736.937,270.688 C736.585998,270.375998 736.4105,269.934003 736.4105,269.362 C736.4105,268.668663 736.718164,268.137835 737.3335,267.7695 C737.948836,267.401165 738.932493,267.143334 740.2845,266.996 C740.2845,266.796666 740.265,266.601668 740.226,266.411 C740.187,266.220332 740.119834,266.051334 740.0245,265.904 C739.929166,265.756666 739.797001,265.6375 739.628,265.5465 C739.458999,265.4555 739.244501,265.41 738.9845,265.41 C738.620498,265.41 738.278168,265.479333 737.9575,265.618 C737.636832,265.756667 737.350835,265.912666 737.0995,266.086 L736.6835,265.345 C736.978168,265.154332 737.337831,264.970168 737.7625,264.7925 C738.187169,264.614832 738.655164,264.526 739.1665,264.526 C739.937837,264.526 740.496832,264.762164 740.8435,265.2345 C741.190168,265.706836 741.3635,266.337329 741.3635,267.126 L741.3635,271 L740.4795,271 L740.3885,270.246 L740.3495,270.246 C740.046165,270.497335 739.721168,270.711832 739.3745,270.8895 C739.027832,271.067168 738.655169,271.156 738.2565,271.156 Z M738.5685,270.298 C738.871835,270.298 739.157832,270.226501 739.4265,270.0835 C739.695168,269.940499 739.981165,269.730335 740.2845,269.453 L740.2845,267.698 C739.755831,267.767334 739.311668,267.849666 738.952,267.945 C738.592332,268.040334 738.302001,268.152999 738.081,268.283 C737.859999,268.413001 737.699667,268.562499 737.6,268.7315 C737.500333,268.900501 737.4505,269.084666 737.4505,269.284 C737.4505,269.648002 737.558832,269.907999 737.7755,270.064 C737.992168,270.220001 738.256498,270.298 738.5685,270.298 Z M743.3525,271 L743.3525,264.682 L744.4185,264.682 L744.4185,267.243 L747.4605,267.243 L747.4605,264.682 L748.5265,264.682 L748.5265,271 L747.4605,271 L747.4605,268.192 L744.4185,268.192 L744.4185,271 L743.3525,271 Z M750.8795,271 L750.8795,273.236 L749.9565,273.236 L749.8395,270.805 L749.8395,270.129 L750.1515,270.129 C750.238167,270.077 750.322666,270.0055 750.405,269.9145 C750.487334,269.8235 750.563166,269.682668 750.6325,269.492 C750.701834,269.301332 750.771166,269.045668 750.8405,268.725 C750.909834,268.404332 750.974833,267.988336 751.0355,267.477 L751.3735,264.682 L755.2995,264.682 L755.2995,270.129 L756.2225,270.129 L756.2225,270.805 L756.1185,273.236 L755.1955,273.236 L755.1955,271 L750.8795,271 Z M751.9715,267.685 C751.902166,268.309003 751.809001,268.815998 751.692,269.206 C751.574999,269.596002 751.442834,269.903666 751.2955,270.129 L754.2335,270.129 L754.2335,265.553 L752.2185,265.553 L751.9715,267.685 Z M759.0305,271.156 C758.501831,271.156 758.062002,271.000002 757.711,270.688 C757.359998,270.375998 757.1845,269.934003 757.1845,269.362 C757.1845,268.668663 757.492164,268.137835 758.1075,267.7695 C758.722836,267.401165 759.706493,267.143334 761.0585,266.996 C761.0585,266.796666 761.039,266.601668 761,266.411 C760.961,266.220332 760.893834,266.051334 760.7985,265.904 C760.703166,265.756666 760.571001,265.6375 760.402,265.5465 C760.232999,265.4555 760.018501,265.41 759.7585,265.41 C759.394498,265.41 759.052168,265.479333 758.7315,265.618 C758.410832,265.756667 758.124835,265.912666 757.8735,266.086 L757.4575,265.345 C757.752168,265.154332 758.111831,264.970168 758.5365,264.7925 C758.961169,264.614832 759.429164,264.526 759.9405,264.526 C760.711837,264.526 761.270832,264.762164 761.6175,265.2345 C761.964168,265.706836 762.1375,266.337329 762.1375,267.126 L762.1375,271 L761.2535,271 L761.1625,270.246 L761.1235,270.246 C760.820165,270.497335 760.495168,270.711832 760.1485,270.8895 C759.801832,271.067168 759.429169,271.156 759.0305,271.156 Z M759.3425,270.298 C759.645835,270.298 759.931832,270.226501 760.2005,270.0835 C760.469168,269.940499 760.755165,269.730335 761.0585,269.453 L761.0585,267.698 C760.529831,267.767334 760.085668,267.849666 759.726,267.945 C759.366332,268.040334 759.076001,268.152999 758.855,268.283 C758.633999,268.413001 758.473667,268.562499 758.374,268.7315 C758.274333,268.900501 758.2245,269.084666 758.2245,269.284 C758.2245,269.648002 758.332832,269.907999 758.5495,270.064 C758.766168,270.220001 759.030498,270.298 759.3425,270.298 Z M764.1265,273.665 L764.1265,264.682 L765.0105,264.682 L765.1015,265.41 L765.1405,265.41 C765.426501,265.167332 765.740665,264.959334 766.083,264.786 C766.425335,264.612666 766.782831,264.526 767.1555,264.526 C767.562835,264.526 767.922498,264.601833 768.2345,264.7535 C768.546502,264.905167 768.806499,265.121832 769.0145,265.4035 C769.222501,265.685168 769.380666,266.023165 769.489,266.4175 C769.597334,266.811835 769.6515,267.255998 769.6515,267.75 C769.6515,268.287336 769.577834,268.766165 769.4305,269.1865 C769.283166,269.606835 769.083835,269.964332 768.8325,270.259 C768.581165,270.553668 768.290835,270.776833 767.9615,270.9285 C767.632165,271.080167 767.285502,271.156 766.9215,271.156 C766.626832,271.156 766.334335,271.091001 766.044,270.961 C765.753665,270.830999 765.461168,270.653334 765.1665,270.428 L765.1925,271.533 L765.1925,273.665 L764.1265,273.665 Z M766.7395,270.259 C766.999501,270.259 767.239999,270.200501 767.461,270.0835 C767.682001,269.966499 767.872666,269.801834 768.033,269.5895 C768.193334,269.377166 768.319,269.115002 768.41,268.803 C768.501,268.490998 768.5465,268.140002 768.5465,267.75 C768.5465,267.403332 768.516167,267.087001 768.4555,266.801 C768.394833,266.514999 768.297334,266.270168 768.163,266.0665 C768.028666,265.862832 767.855334,265.704667 767.643,265.592 C767.430666,265.479333 767.177168,265.423 766.8825,265.423 C766.613832,265.423 766.343001,265.496666 766.07,265.644 C765.796999,265.791334 765.504502,266.003665 765.1925,266.281 L765.1925,269.596 C765.478501,269.838668 765.755832,270.009833 766.0245,270.1095 C766.293168,270.209167 766.531499,270.259 766.7395,270.259 Z M772.7325,271 L772.7325,265.553 L770.6135,265.553 L770.6135,264.682 L775.9175,264.682 L775.9175,265.553 L773.7985,265.553 L773.7985,271 L772.7325,271 Z M777.3215,271 L777.3215,264.682 L778.3875,264.682 L778.3875,267.243 L781.4295,267.243 L781.4295,264.682 L782.4955,264.682 L782.4955,271 L781.4295,271 L781.4295,268.192 L778.3875,268.192 L778.3875,271 L777.3215,271 Z M784.6275,271 L784.6275,264.682 L785.6935,264.682 L785.6935,267.009 L786.5905,267.009 C786.963169,267.009 787.303332,267.048 787.611,267.126 C787.918668,267.204 788.182999,267.323166 788.404,267.4835 C788.625001,267.643834 788.796166,267.847499 788.9175,268.0945 C789.038834,268.341501 789.0995,268.638332 789.0995,268.985 C789.0995,269.340335 789.038834,269.643665 788.9175,269.895 C788.796166,270.146335 788.625001,270.354333 788.404,270.519 C788.182999,270.683667 787.918668,270.805 787.611,270.883 C787.303332,270.961 786.963169,271 786.5905,271 L784.6275,271 Z M785.6935,270.142 L786.4735,270.142 C787.522172,270.142 788.0465,269.756337 788.0465,268.985 C788.0465,268.586331 787.918668,268.296001 787.663,268.114 C787.407332,267.931999 787.010836,267.841 786.4735,267.841 L785.6935,267.841 L785.6935,270.142 Z M790.1915,271 L790.1915,264.682 L791.2575,264.682 L791.2575,271 L790.1915,271 Z M793.3895,271 L793.3895,264.682 L794.4295,264.682 L794.4295,267.308 C794.4295,267.646002 794.418667,268.016498 794.397,268.4195 C794.375333,268.822502 794.3515,269.227665 794.3255,269.635 L794.3775,269.635 C794.498834,269.435666 794.639666,269.210335 794.8,268.959 C794.960334,268.707665 795.096833,268.482334 795.2095,268.283 L797.6015,264.682 L798.6025,264.682 L798.6025,271 L797.5625,271 L797.5625,268.374 C797.5625,268.035998 797.573333,267.665502 797.595,267.2625 C797.616667,266.859498 797.6405,266.450002 797.6665,266.034 L797.6145,266.034 C797.493166,266.233334 797.352334,266.460832 797.192,266.7165 C797.031666,266.972168 796.895167,267.195332 796.7825,267.386 L794.3775,271 L793.3895,271 Z M796.0285,263.551 C795.664498,263.551 795.356835,263.494667 795.1055,263.382 C794.854165,263.269333 794.646167,263.119834 794.4815,262.9335 C794.316833,262.747166 794.1955,262.534835 794.1175,262.2965 C794.0395,262.058165 793.996167,261.813335 793.9875,261.562 L794.8715,261.562 C794.880167,261.744001 794.904,261.919499 794.943,262.0885 C794.982,262.257501 795.047,262.402666 795.138,262.524 C795.229,262.645334 795.345999,262.742833 795.489,262.8165 C795.632001,262.890167 795.811832,262.927 796.0285,262.927 C796.245168,262.927 796.424999,262.890167 796.568,262.8165 C796.711001,262.742833 796.828,262.645334 796.919,262.524 C797.01,262.402666 797.075,262.257501 797.114,262.0885 C797.153,261.919499 797.176833,261.744001 797.1855,261.562 L798.0695,261.562 C798.052167,261.813335 798.006667,262.058165 797.933,262.2965 C797.859333,262.534835 797.740167,262.747166 797.5755,262.9335 C797.410833,263.119834 797.202835,263.269333 796.9515,263.382 C796.700165,263.494667 796.392502,263.551 796.0285,263.551 Z"
       id="Стандартный"
       fill="#333333"
       fill-rule="nonzero" />
    <path
       d="M341,206 L836,206 L836,373 L341,373 L0,373 L0,0 L341,0 L341,206 Z"
       id="Combined-Shape"
       fill="#FFFFFF"
       opacity="0.697242374" />
  </g>
  <g
     inkscape:groupmode="layer"
     id="layer1"
     inkscape:label="my"
     style="display:inline">
    <g
       style="display:inline;opacity:1;vector-effect:none;fill:#ecedf2;fill-opacity:1;stroke-width:1;stroke-linecap:butt;stroke-linejoin:miter;stroke-miterlimit:4;stroke-dasharray:none;stroke-dashoffset:0;stroke-opacity:1"
       id="g109-1-2"
       transform="translate(390.97339,130.29772)">
      <path
         inkscape:connector-curvature="0"
         d="m 48.168869,33.057242 h 46.661907 c 2.8,0 5,3.2 5,7.1 v 20.640079 c 0,3.9 -2.2,7.1 -5,7.1 H 48.168869 c -2.8,0 -5,-3.2 -5,-7.1 V 40.157242 c 0,-3.9 2.2,-7.1 5,-7.1 z"
         id="path107-0-6"
         sodipodi:nodetypes="sssssssss"
         style="vector-effect:none;fill:#ecedf2;fill-opacity:1;stroke-width:1;stroke-linecap:butt;stroke-linejoin:miter;stroke-miterlimit:4;stroke-dasharray:none;stroke-dashoffset:0;stroke-opacity:1" />
    </g>
    <g
       id="g1290"
       transform="translate(12.492262,-1.925)">
      <circle
         r="13.628978"
         cy="155.75"
         cx="450.44998"
         id="path1157-8"
         style="display:inline;opacity:1;fill:#ecedf2;fill-opacity:1;stroke:#ffffff;stroke-width:3.77952766;stroke-miterlimit:4;stroke-dasharray:none;stroke-opacity:1" />
      <text
         id="text1161-9"
         y="161.6927"
         x="442.81195"
         style="font-style:normal;font-weight:normal;font-size:18.66666603px;line-height:1.25;font-family:sans-serif;letter-spacing:0px;word-spacing:0px;display:inline;fill:#000000;fill-opacity:1;stroke:none"
         xml:space="preserve"><tspan
           y="161.6927"
           x="442.81195"
           id="tspan1159-6"
           sodipodi:role="line">+</tspan></text>
    </g>
    <g
       id="MS_IIS-link-Copy-7"
       transform="translate(407.06635,145.287)">
      <text
         xml:space="preserve"
         style="font-style:normal;font-weight:normal;font-size:18.66666603px;line-height:1.25;font-family:sans-serif;letter-spacing:0px;word-spacing:0px;fill:#000000;fill-opacity:1;stroke:none"
         x="39.087196"
         y="42.178104"
         id="text1147"><tspan
           sodipodi:role="line"
           id="tspan1145"
           x="39.087196"
           y="42.178104">JRE</tspan></text>
      <text
         xml:space="preserve"
         style="font-style:normal;font-weight:normal;font-size:18.66666603px;line-height:1.25;font-family:sans-serif;letter-spacing:0px;word-spacing:0px;fill:#000000;fill-opacity:1;stroke:none"
         x="8.0122004"
         y="8.9031067"
         id="text1151"><tspan
           sodipodi:role="line"
           id="tspan1149"
           x="8.0122004"
           y="25.933271" /></text>
    </g>
    <g
       style="display:inline;opacity:1;vector-effect:none;fill:#ecedf2;fill-opacity:1;stroke-width:1;stroke-linecap:butt;stroke-linejoin:miter;stroke-miterlimit:4;stroke-dasharray:none;stroke-dashoffset:0;stroke-opacity:1"
       id="g109-1-2-5"
       transform="translate(298.80202,130.29772)">
      <path
         inkscape:connector-curvature="0"
         d="m 48.168869,33.057242 h 46.661907 c 2.8,0 5,3.2 5,7.1 v 20.640079 c 0,3.9 -2.2,7.1 -5,7.1 H 48.168869 c -2.8,0 -5,-3.2 -5,-7.1 V 40.157242 c 0,-3.9 2.2,-7.1 5,-7.1 z"
         id="path107-0-6-2"
         sodipodi:nodetypes="sssssssss"
         style="vector-effect:none;fill:#ecedf2;fill-opacity:1;stroke-width:1;stroke-linecap:butt;stroke-linejoin:miter;stroke-miterlimit:4;stroke-dasharray:none;stroke-dashoffset:0;stroke-opacity:1" />
    </g>
    <use
       x="0"
       y="0"
       xlink:href="#g1290"
       id="use1292"
       transform="translate(-93.039623)"
       width="100%"
       height="100%" />
    <text
       xml:space="preserve"
       style="font-style:normal;font-weight:normal;font-size:18.66666603px;line-height:1.25;font-family:sans-serif;letter-spacing:0px;word-spacing:0px;fill:#000000;fill-opacity:1;stroke:none"
       x="351.21365"
       y="186.42462"
       id="text1155"><tspan
         sodipodi:role="line"
         id="tspan1153"
         x="351.21365"
         y="186.42462">CSP</tspan></text>
  </g>
</svg>
